<svg xmlns="http://www.w3.org/2000/svg" xmlns:xlink="http://www.w3.org/1999/xlink" fill="none" version="1.1" width="216" height="90" viewBox="0 0 216 90"><g><path d="M59.364,74.76Q59.292,74.76,59.076,74.616Q58.86,74.472,58.716,74.472L58.5,74.472Q58.428,74.544,58.284,74.544Q57.996,73.896,57.42,73.536Q57.276,73.464,56.844,73.464Q56.34,72.744,55.188,72.312Q55.188,72.312,55.188,72.276Q55.188,72.24,55.26,72.168Q54.972,71.952,54.972,71.952Q54.9,71.952,54.9,72.024L54.828,72.024Q54.612,72.024,53.604,70.8Q53.604,70.656,54.756,70.152Q54.468,70.008,54.216,69.828Q53.964,69.648,53.604,69.36Q53.46,68.856,52.704,68.316Q51.948,67.776,51.804,67.92L50.724,67.632Q50.724,67.488,50.508,67.344Q50.292,67.2,50.364,67.2Q50.22,67.2,50.22,67.272Q50.22,67.344,50.148,67.344Q50.004,67.344,49.104,67.092Q48.204,66.84,48.132,66.84Q48.132,66.84,47.844,66.984L46.908,65.976Q46.476,66.12,46.62,66.12Q46.476,66.12,46.116,65.796Q45.756,65.472,45.684,65.472Q45.54,65.472,45.576,65.544Q45.612,65.616,45.54,65.616Q45.468,65.616,45.252,65.436Q45.036,65.256,44.964,65.256L44.676,65.256Q44.676,65.184,44.748,65.112Q44.604,64.968,44.532,64.968Q44.1,64.968,43.524,64.752Q42.804,64.392,41.94,64.032Q41.076,63.672,39.996,63.24Q32.148,60.288,31.284,60.288L30.78,60.432L30.78,60.288Q30.204,59.712,30.06,59.712Q29.772,59.712,29.628,59.856Q28.62,59.424,28.692,59.28Q28.62,59.352,28.62,59.424Q27.972,59.064,27.612,58.488Q27.324,58.632,27.324,58.632Q27.18,58.632,27.144,58.56Q27.108,58.488,27.036,58.488Q26.892,58.488,26.532,58.74Q26.172,58.992,26.028,58.992Q25.956,58.992,25.632,58.812Q25.308,58.632,25.236,58.632L24.948,58.704Q24.66,58.272,24.3,58.128Q24.3,58.056,24.156,58.056Q24.012,58.056,24.012,58.164Q24.012,58.272,23.868,58.272Q23.796,58.272,23.796,58.2Q23.796,58.056,23.724,58.056Q23.58,58.056,23.544,58.164Q23.508,58.272,23.436,58.272Q22.356,57.768,21.636,57.768Q21.564,57.768,21.42,57.912Q21.276,57.768,21.06,57.516Q20.844,57.264,20.556,57.264L20.052,57.408L19.836,57.408Q19.764,57.408,19.584,57.408Q19.404,57.408,19.188,57.336L18.972,57.552Q18.756,57.264,18.252,56.832Q18.108,56.904,17.532,57.48Q17.46,57.552,17.388,57.732Q17.316,57.912,17.172,58.128Q16.668,58.632,16.128,59.172Q15.588,59.712,15.588,60.072Q15.372,60.144,15.192,60.324Q15.012,60.504,14.868,60.648Q14.868,60.792,14.364,61.512Q14.148,61.584,14.184,61.548Q14.22,61.512,13.968,61.8Q13.716,62.088,12.492,63.096Q12.42,63.168,11.988,63.312L10.908,64.32Q10.692,64.392,10.692,64.392L9.468,65.256L9.108,65.04Q9.036,65.04,8.964,65.148Q8.892,65.256,8.82,65.256Q8.748,65.256,8.748,65.112Q8.676,65.04,8.604,65.04Q8.748,65.04,8.244,65.328L7.596,64.824L7.164,65.04Q7.164,65.04,6.876,64.68Q6.588,64.32,6.444,64.32Q6.444,64.248,6.588,64.104L6.372,63.672L6.372,63.456Q6.372,63.24,6.3,62.844Q6.228,62.448,6.012,61.944Q6.012,61.584,6.336,61.26Q6.66,60.936,6.66,60.648L7.38,61.008Q7.38,61.152,7.38,61.368Q7.38,61.584,7.452,61.872Q7.884,62.952,8.604,63.24Q8.676,63.312,8.784,63.6Q8.892,63.888,8.964,63.888Q9.108,63.888,9.036,63.816L9.108,63.816L9.396,64.032Q9.54,63.672,9.828,63.672Q9.9,63.672,9.9,63.744Q9.9,63.816,10.044,63.816Q10.116,63.816,10.512,63.276Q10.908,62.736,10.98,62.736Q11.052,62.736,11.052,62.808L11.124,62.808Q11.052,62.808,12.636,61.224L13.284,60.288Q13.428,60.288,14.652,59.136L14.652,58.56Q14.94,58.2,15.264,57.696Q15.588,57.192,16.092,56.616Q15.804,56.616,15.516,56.688Q15.228,56.76,15.156,56.76Q15.084,56.76,15.084,56.652Q15.084,56.544,14.94,56.544Q14.94,56.544,14.868,56.58Q14.796,56.616,14.652,56.688L14.364,56.688Q13.932,56.688,13.284,56.472L13.068,56.472Q12.996,56.472,12.816,56.616Q12.636,56.76,12.492,56.76L11.772,56.76Q11.7,56.76,11.7,56.652Q11.7,56.544,11.628,56.544Q11.484,56.544,10.728,56.76Q9.972,56.976,9.828,56.976Q9.756,56.976,9.684,56.904Q9.612,56.832,9.54,56.832L8.964,56.976Q8.892,57.048,8.748,57.192Q8.604,57.336,8.46,57.336L8.388,57.336Q8.388,57.264,8.244,57.264Q8.172,57.264,7.992,57.408Q7.812,57.552,7.74,57.552Q7.596,57.552,7.596,57.48L7.38,57.48Q7.38,57.552,7.236,57.552L6.948,57.264Q6.876,57.336,6.624,57.624Q6.372,57.912,6.084,57.768Q6.012,57.912,5.976,58.056Q5.94,58.2,5.94,58.344L6.012,58.488Q6.084,58.488,6.228,58.632L7.02,57.984Q7.02,57.984,7.596,58.776L7.02,59.28Q6.732,58.992,6.372,58.992Q6.3,58.992,5.688,59.388Q5.076,59.784,5.004,59.784Q4.932,59.784,4.86,59.676Q4.788,59.568,4.716,59.568Q4.644,59.568,4.608,59.64Q4.572,59.712,4.428,59.712L4.212,59.568L3.564,59.568Q3.492,59.568,3.492,59.676Q3.492,59.784,3.348,59.784Q3.276,59.784,3.24,59.712Q3.204,59.64,3.132,59.64Q2.772,59.64,2.484,60.144Q2.268,59.928,2.052,59.928Q1.836,59.928,1.548,60.216L1.26,60Q1.188,60,1.188,60.072L1.116,60.072L0.828003,59.784Q0.468003,59.784,0.324003,59.136L0.180003,58.344L0.180003,57.768L0.468003,57.336Q1.404,56.544,1.62,56.544Q1.764,56.544,1.98,56.616L2.268,56.616Q2.412,56.616,2.628,56.508Q2.844,56.4,2.916,56.4Q2.844,56.4,2.88,56.436Q2.916,56.472,2.988,56.4L2.916,56.4Q2.772,56.472,3.06,56.616Q4.5,56.184,4.428,56.184L4.5,56.184Q4.5,56.256,4.572,56.256Q4.716,56.256,4.896,56.112Q5.076,55.968,5.22,55.968Q5.58,55.968,6.192,55.932Q6.804,55.896,7.524,55.824L8.244,55.608Q8.388,55.608,8.316,55.68Q8.244,55.752,8.316,55.752L9.036,55.752Q9.18,55.752,9.396,55.644Q9.612,55.536,9.684,55.536Q9.828,55.536,9.756,55.608Q9.684,55.68,9.756,55.68L10.908,55.68L11.124,55.608Q11.268,55.608,11.664,55.68Q12.06,55.752,12.132,55.752Q12.204,55.752,12.456,55.68Q12.708,55.608,12.852,55.608L13.068,55.824Q13.356,55.752,13.536,55.752Q13.716,55.752,13.788,55.68L13.932,55.824Q14.076,55.824,14.364,55.788Q14.652,55.752,15.012,55.68Q14.796,55.608,15.3,55.608Q15.372,55.608,15.516,55.716Q15.66,55.824,15.732,55.824Q15.804,55.824,15.84,55.752Q15.876,55.68,15.948,55.68Q16.02,55.68,16.092,55.752Q16.164,55.824,16.236,55.824Q16.308,55.824,16.74,55.68Q17.316,54.744,17.82,53.808Q18.324,52.872,18.756,51.936Q18.972,51.648,19.188,51.324Q19.404,51,19.548,50.496Q19.836,50.424,19.98,49.92Q20.124,49.92,20.304,49.74Q20.484,49.56,20.484,48.912Q21.276,47.904,21.132,47.544L22.284,46.032Q22.212,45.6,22.284,45.312Q22.356,45.312,22.5,45.096Q22.644,44.88,22.86,44.88Q22.932,44.88,23.004,44.952Q23.004,44.304,23.076,44.16Q23.004,43.944,23.004,43.8L23.22,43.368Q23.508,43.296,23.688,43.152Q23.868,43.008,24.012,42.864Q24.012,42.864,24.264,42.216Q24.516,41.568,24.804,41.568Q24.948,41.064,26.028,39.768L26.532,38.4Q27.396,37.896,27.252,37.104Q27.612,36.6,28.008,36.204Q28.404,35.808,28.908,35.448L29.124,35.016Q29.052,34.944,28.908,35.088L29.124,34.512Q29.124,34.512,29.124,34.728Q29.124,34.944,29.34,34.728Q29.484,34.512,29.34,34.368Q29.628,34.08,29.484,33.936Q29.484,33.864,29.484,33.864L29.484,33.936Q29.556,33.936,29.7,33.936Q29.988,33.936,29.988,33.504Q29.988,33.36,30.06,32.928Q30.132,32.496,30.204,32.352Q30.204,32.424,30.348,32.712Q30.42,32.568,30.564,32.352Q30.708,32.136,30.852,31.848L31.428,31.272Q31.572,30.912,31.5,30.912Q31.716,30.768,32.22,30.264Q32.292,30.12,32.292,29.94Q32.292,29.76,32.364,29.472Q32.868,29.184,32.868,28.896Q33.228,28.752,33.588,28.392Q33.516,28.248,33.516,28.104Q33.516,27.96,33.444,27.744Q33.516,27.672,33.516,27.564Q33.516,27.456,33.588,27.384Q34.884,27.24,34.956,26.304L36.036,25.44Q36.18,25.296,36.036,25.224Q36.252,25.224,36.468,24.432Q37.044,24,37.476,23.928Q37.404,24.072,37.548,24.36Q37.692,24.144,37.944,23.82Q38.196,23.496,38.556,23.064Q38.484,22.992,38.412,23.064Q38.412,22.992,38.412,22.848Q38.412,22.704,38.484,22.416L38.772,22.416Q38.916,22.416,39.168,22.164Q39.42,21.912,39.564,21.912L39.636,21.984L39.636,21.408Q39.852,21.192,39.924,21.336Q40.068,21.192,40.248,20.976Q40.428,20.76,40.716,20.472Q41.148,20.544,41.184,20.544Q41.22,20.544,41.364,20.688Q42.084,19.536,41.94,19.536Q42.372,19.536,42.444,19.608Q42.804,19.176,42.876,19.176Q42.804,19.176,43.092,19.464Q43.812,18.744,43.74,18.744L43.884,18.744Q43.884,18.816,43.956,18.816Q44.1,18.816,44.244,18.6Q44.388,18.384,44.532,18.384Q44.676,18.456,44.748,18.456Q44.82,18.384,44.676,18.24Q45.108,18.168,46.044,17.448Q46.116,17.448,46.44,17.448Q46.764,17.448,47.34,17.376Q47.7,17.16,47.7,17.088L47.7,17.16L47.772,17.16Q47.844,17.16,47.952,17.088Q48.06,17.016,48.204,17.016Q48.132,17.016,49.644,16.512Q50.508,16.224,51.156,16.224Q51.228,16.224,51.228,16.296Q51.156,16.368,51.228,16.368Q51.3,16.368,51.552,16.26Q51.804,16.152,51.876,16.152Q51.948,16.152,52.128,16.26Q52.308,16.368,52.38,16.368Q52.524,16.368,52.884,16.008Q53.1,16.008,53.64,15.864Q54.18,15.72,54.252,15.72Q54.324,15.72,54.432,15.828Q54.54,15.936,54.612,15.936Q54.684,15.936,54.72,15.828Q54.756,15.72,54.828,15.72Q54.9,15.72,55.044,15.936Q55.188,16.152,55.26,16.152L56.052,16.152L56.196,16.296Q56.34,16.296,56.412,16.368L56.772,16.368Q56.844,16.296,56.916,16.296Q57.06,16.296,57.24,16.404Q57.42,16.512,57.492,16.512L57.636,16.512Q57.708,16.44,57.78,16.44Q57.924,16.44,58.104,16.62Q58.284,16.8,58.428,16.8Q58.5,16.8,58.5,16.728L58.572,16.728Q58.716,16.872,58.86,17.088Q59.004,17.304,59.724,17.448Q59.796,17.448,59.868,17.592Q59.94,17.736,60.012,17.736Q60.156,17.664,60.228,17.664Q60.3,17.736,60.444,18.168Q61.164,18.312,61.416,18.78Q61.668,19.248,61.956,19.32L61.956,19.248L62.172,20.256Q62.244,20.616,62.316,21.156Q62.388,21.696,62.532,22.416Q62.388,22.56,62.244,22.56L61.74,24.936Q61.308,26.88,60.372,28.104L59.652,29.04Q59.796,29.472,59.58,29.76Q58.932,30.696,58.284,30.696Q58.14,30.696,58.068,30.624L57.852,30.624Q57.924,30.552,57.924,30.264Q58.572,29.688,58.572,29.112L58.86,28.824L58.86,28.536Q59.58,27.816,59.58,26.808Q59.868,26.808,60.084,26.592Q59.868,25.872,59.796,25.8Q59.868,25.656,60.12,25.368Q60.372,25.08,60.228,24.72Q60.156,24.648,60.012,24.648Q60.156,24.36,60.372,24.288L60.516,23.64L60.084,22.992L60.588,22.488Q60.732,22.056,60.444,21.912L60.66,21.696Q60.66,21.336,60.48,21.372Q60.3,21.408,60.156,21.12Q60.012,20.832,60.012,19.68Q59.724,19.392,59.652,19.032L59.508,19.176L59.508,18.528L59.364,18.744Q59.148,18.672,59.04,18.384Q58.932,18.096,58.86,18.096L58.788,18.096Q58.788,18.168,58.716,18.168Q58.572,18.168,58.284,17.88Q57.996,17.592,57.924,17.592Q57.78,17.592,57.78,17.664Q57.78,17.736,57.636,17.736Q57.564,17.736,57.456,17.664Q57.348,17.592,57.276,17.592Q57.132,17.592,57.132,17.664Q57.132,17.736,57.06,17.736L56.844,17.736Q56.772,17.664,56.628,17.664Q56.484,17.664,56.34,17.52L56.196,17.664Q55.188,17.664,55.26,17.592Q54.612,17.592,53.82,18.096Q53.748,17.88,53.388,17.88L53.316,17.88Q53.028,17.88,52.812,18.312Q52.668,18.312,52.524,18.168Q52.164,18.24,51.408,18.744Q50.652,19.248,50.364,19.248L50.004,19.248Q50.004,19.248,49.716,18.96Q49.068,19.824,48.996,19.824Q48.924,19.824,48.492,19.968Q48.492,19.824,48.348,19.68Q48.204,19.824,47.988,20.004Q47.772,20.184,46.764,21.192Q46.188,20.976,46.116,20.904Q45.972,20.832,45.72,21.3Q45.468,21.768,45.324,21.912Q45.396,21.912,45.324,21.912Q45.324,21.84,45.252,21.768Q44.892,21.768,44.676,21.84Q44.532,22.2,43.884,22.632L43.668,22.488L43.092,22.992Q43.164,23.064,43.164,23.568Q41.508,24.576,41.796,24.576Q41.652,24.576,41.4,24.288Q41.148,24,41.292,23.856L41.148,23.856Q40.716,23.856,40.644,24.36Q40.644,24.504,40.716,24.432Q40.932,24.72,40.932,24.936Q40.932,25.224,40.572,25.584Q40.5,25.728,40.428,25.908Q40.356,26.088,39.996,26.448Q38.988,27.384,39.06,27.672Q39.06,27.6,38.916,27.6Q38.628,27.6,38.412,27.96Q38.196,28.32,38.052,28.536L36.9,29.688L36.468,30.552L35.46,31.416Q35.388,31.488,35.316,31.704Q35.244,31.92,35.172,32.28Q34.452,32.424,34.38,32.712Q33.444,33.792,32.508,35.52L32.148,35.808Q31.572,36.672,30.672,38.004Q29.772,39.336,28.548,41.136Q28.476,41.28,28.404,41.496Q28.332,41.712,27.9,42Q27.828,42.072,27.9,42.144Q27.612,42.432,27.252,43.008L25.74,45.744Q25.524,45.96,25.308,46.212Q25.092,46.464,24.804,46.968Q24.3,47.832,23.508,48.948Q22.716,50.064,21.708,51.432L20.916,52.8Q20.628,52.872,20.268,53.232Q19.98,53.664,19.656,54.348Q19.332,55.032,18.828,55.968Q18.972,56.112,18.972,56.112Q18.972,56.112,19.116,55.968L19.188,55.968Q19.188,55.968,19.116,55.968Q19.188,56.04,20.052,56.256L20.196,56.112L20.412,56.112Q20.556,56.112,20.772,56.148Q20.988,56.184,21.276,56.256Q21.636,56.472,21.42,56.472Q21.564,56.472,21.564,56.4Q21.564,56.328,21.708,56.328Q21.78,56.328,21.888,56.4Q21.996,56.472,22.14,56.472L22.284,56.472Q22.356,56.4,22.428,56.4Q22.716,56.4,22.968,56.58Q23.22,56.76,23.652,56.76Q23.724,56.76,23.868,56.652Q24.012,56.544,24.084,56.544Q24.156,56.544,24.264,56.652Q24.372,56.76,24.444,56.76Q24.588,56.76,24.588,56.724Q24.588,56.688,24.66,56.616Q24.66,56.688,24.876,56.904Q25.308,56.76,25.308,56.76Q25.452,56.76,25.668,56.904Q25.884,57.048,25.956,57.048Q26.1,57.048,26.1,56.976L26.172,56.976Q26.244,56.976,26.424,57.084Q26.604,57.192,26.748,57.192Q26.82,57.192,26.892,57.12Q26.964,57.048,27.036,57.048Q27.036,57.048,27.9,57.552L28.188,57.264Q28.116,57.336,28.116,57.552L28.404,57.624Q28.476,57.624,28.476,57.552Q28.476,57.48,28.548,57.48Q28.62,57.48,28.764,57.588Q28.908,57.696,29.052,57.696Q29.124,57.696,29.052,57.624Q28.98,57.552,29.124,57.552Q29.196,57.552,29.304,57.696Q29.412,57.84,29.556,57.84Q29.7,57.84,29.772,57.768Q30.204,58.272,30.276,58.272Q30.492,58.272,30.708,58.2L31.14,58.2L31.716,58.344Q31.86,58.344,31.932,58.2Q32.004,58.056,32.076,58.056Q31.932,58.128,32.868,58.632Q33.156,58.632,33.588,59.064L33.948,58.704L34.164,58.992L34.308,58.92Q34.452,58.92,34.812,59.172Q35.172,59.424,35.244,59.424Q35.316,59.424,35.244,59.352Q35.244,59.28,35.244,59.28Q35.244,59.28,35.244,59.352Q35.316,59.352,35.892,59.352Q35.964,59.352,36.144,59.496Q36.324,59.64,36.396,59.64Q36.54,59.64,36.756,59.424Q36.972,59.856,37.188,59.856Q37.116,59.856,37.476,59.712Q37.62,59.784,37.908,59.856Q38.196,59.928,38.484,60.072Q39.276,60.576,39.42,60.576Q39.564,60.576,39.564,60.504Q39.564,60.432,39.708,60.432Q39.78,60.432,39.924,60.576Q40.068,60.72,40.14,60.72L40.284,60.72Q40.212,60.648,40.356,60.648Q40.932,60.648,41.796,61.116Q42.66,61.584,42.588,61.584Q42.66,61.584,42.876,61.368Q42.948,61.44,42.984,61.62Q43.02,61.8,43.164,61.8L43.452,61.8Q43.74,61.8,44.388,62.088L44.46,62.088Q44.46,62.016,44.604,62.016Q44.676,62.016,45.648,62.52Q46.62,63.024,47.124,63.096Q47.124,63.096,47.7,63.456Q47.916,63.456,48.24,63.564Q48.564,63.672,48.42,63.672L48.636,63.672Q48.636,63.744,48.564,63.816Q49.068,64.176,49.716,64.536L50.436,64.68L51.588,65.328Q51.66,65.328,51.588,65.4Q51.516,65.472,51.66,65.472Q51.588,65.472,51.804,65.4Q51.804,65.688,51.948,65.688L52.668,65.688Q52.74,65.76,52.74,65.616Q52.74,65.256,52.452,65.256Q52.452,65.256,52.38,65.292Q52.308,65.328,52.236,65.328Q52.308,65.184,52.308,65.076Q52.308,64.968,52.308,64.968Q51.804,64.248,51.804,63.6Q51.804,63.312,51.948,62.88L51.3,62.448Q51.3,62.232,51.228,62.016L51.084,62.16L51.084,61.872Q51.156,61.8,51.156,61.584Q51.156,61.224,50.94,60.576Q51.156,60.576,51.3,60.432Q50.94,60,50.58,58.344Q50.724,57.912,50.724,57.696Q50.724,57.264,50.508,56.832Q50.652,56.616,50.58,56.544L50.508,56.472Q50.868,56.112,50.508,56.112Q50.58,56.04,50.58,55.608Q50.652,55.608,50.724,55.68L51.084,55.392L51.516,57.768Q51.372,57.984,51.516,58.344L52.236,61.872Q52.596,62.088,52.704,62.412Q52.812,62.736,53.1,63.312Q53.1,64.248,55.044,66.984L56.124,67.416Q56.412,67.56,56.916,67.92Q57.42,68.28,58.212,68.856Q58.284,69.072,58.14,69.36Q58.212,69.792,58.788,70.8Q58.716,70.872,58.644,70.98Q58.572,71.088,58.356,72.384Q58.284,72.456,58.284,72.528Q58.284,73.032,58.608,73.428Q58.932,73.824,59.868,74.4L59.868,74.76L59.364,74.76ZM59.796,25.872Q59.796,25.872,59.796,25.8L59.796,25.872ZM28.764,59.28Q28.764,59.28,28.692,59.28L28.764,59.28ZM57.924,84.912Q57.348,84.912,55.476,83.544Q55.044,83.184,54.72,82.68Q54.396,82.176,54.18,82.176Q53.748,80.664,53.1,80.664Q53.244,80.52,53.244,80.376Q53.244,80.232,52.596,78.648L52.596,78.36Q52.524,78.216,52.452,77.928Q52.38,77.64,52.236,77.28Q52.308,77.208,52.308,76.848Q52.236,76.92,52.236,76.632Q52.38,76.488,52.38,76.272L52.236,76.056Q52.236,76.056,52.38,75.768Q52.452,74.904,52.596,73.644Q52.74,72.384,52.74,71.88L52.74,71.304Q52.74,70.944,52.776,70.62Q52.812,70.296,52.884,70.008L53.46,69.144Q53.532,68.784,53.676,68.352Q53.82,67.92,53.964,67.344Q54.324,66.552,55.404,65.472Q55.404,65.328,55.44,65.148Q55.476,64.968,55.548,64.752Q55.692,64.536,55.944,64.068Q56.196,63.6,56.628,62.52Q56.772,62.448,57.06,61.296Q57.132,61.368,57.348,61.368Q57.708,61.368,57.924,60.72L58.212,60.576Q58.644,59.784,59.076,58.632Q59.22,58.632,59.436,57.84Q59.94,57.48,60.804,56.328L60.948,55.824Q61.308,55.536,61.812,55.14Q62.316,54.744,62.892,54.24L63.108,53.808Q63.108,53.736,63.396,53.52Q63.684,53.304,63.612,53.088Q63.972,52.872,64.26,52.44L64.548,52.44L66.924,49.92Q67.068,49.632,67.464,49.056Q67.86,48.48,68.364,48.12Q68.724,47.976,69.372,47.472Q69.516,47.328,69.516,47.328L69.588,47.328Q69.588,47.4,69.66,47.4Q69.732,47.4,70.02,47.004Q70.308,46.608,70.668,46.464L71.1,45.96Q71.604,45.816,72.036,45.528L72.9,44.664L74.196,43.944Q74.7,43.656,75.924,42.576Q75.996,42.504,76.212,42.504Q76.428,42.216,76.86,42Q77.292,41.784,77.724,41.424Q79.164,40.848,80.604,39.552Q81.108,39.48,82.044,38.976L83.196,37.968L83.916,37.752L84.132,37.464Q84.492,37.32,85.14,37.068Q85.788,36.816,86.58,36.528Q86.94,36.312,86.796,36.312Q86.94,36.312,86.94,36.384L87.012,36.384Q87.156,36.384,87.3,36.024Q88.02,35.952,89.172,35.304Q89.388,35.304,89.856,35.16Q90.324,35.016,90.396,35.016Q90.54,35.016,90.54,35.088L90.612,35.088Q90.684,35.088,91.332,34.656Q91.98,34.224,92.124,34.224L93.564,34.368Q93.708,34.368,93.924,34.188Q94.14,34.008,95.004,33.72L99.612,33.216L99.828,33.36L100.548,33.36L101.412,33.216Q101.484,33.216,101.628,33.36Q101.772,33.504,101.916,33.504Q102.06,33.504,102.06,33.288Q102.492,33.36,103.32,33.54Q104.148,33.72,103.716,33.72Q103.86,33.72,103.86,33.648L103.932,33.648Q103.86,33.648,104.436,33.936Q104.724,34.08,105.228,34.08Q105.372,34.08,105.516,33.936L105.948,32.784L106.164,32.496Q106.38,32.208,106.488,31.812Q106.596,31.416,106.668,31.056L107.244,30.336Q107.244,30.192,107.244,29.904Q107.244,29.616,107.316,29.328L107.964,27.888Q107.892,27.744,107.892,27.312Q108.036,27.168,108.036,26.736Q108.252,26.52,108.972,24.072L109.548,23.208Q109.548,23.064,109.548,22.848Q109.548,22.632,109.62,22.344Q109.908,21.48,109.908,21.552L109.908,21.192Q109.836,20.976,109.836,20.76Q109.548,20.688,109.296,20.652Q109.044,20.616,108.9,20.616Q108.828,20.616,108.36,20.832Q107.892,21.048,107.82,21.048Q107.676,21.048,107.604,20.976L107.388,20.976Q107.244,20.976,107.028,21.084Q106.812,21.192,106.668,21.192Q106.596,21.192,106.344,21.048Q106.092,20.904,105.876,20.904Q105.588,20.832,105.084,20.796Q104.58,20.76,104.004,20.76Q103.932,20.76,103.86,20.904Q103.788,21.048,103.644,21.048L102.708,20.832Q102.564,20.832,102.42,20.94Q102.276,21.048,102.204,21.048Q102.06,21.048,101.988,20.976L101.772,20.976Q101.7,20.976,101.556,21.084Q101.412,21.192,101.34,21.192Q101.412,21.192,101.34,21.192Q101.268,21.192,101.16,21.156Q101.052,21.12,100.836,21.12Q100.764,21.048,100.764,20.94Q100.764,20.832,100.692,20.76Q100.548,20.904,100.44,20.976Q100.332,21.048,100.332,21.048L99.108,21.048Q98.532,21.048,98.244,21.084Q97.956,21.12,97.884,21.12L96.444,20.76Q96.372,20.76,96.336,20.868Q96.3,20.976,96.156,20.976L94.5,20.616Q94.428,20.616,94.356,20.688L94.212,20.688Q94.068,20.688,93.132,20.508Q92.196,20.328,92.052,20.328Q91.98,20.328,91.872,20.4Q91.764,20.472,91.62,20.472Q91.548,20.472,91.404,20.256Q91.26,20.04,90.972,20.04Q90.612,20.04,90.612,20.184L90.324,19.752Q90.18,19.752,89.964,19.752Q89.748,19.752,89.46,19.68Q89.388,19.536,89.172,19.464Q88.956,19.392,88.164,19.392Q87.948,19.392,88.02,19.464Q87.948,19.392,87.876,19.32Q87.804,19.248,87.66,19.104Q85.644,18.456,85.86,18.456L85.716,18.456Q85.716,18.528,85.572,18.528Q85.5,18.528,83.988,17.232L83.988,17.016Q83.988,16.944,84.06,16.62Q84.132,16.296,84.132,16.08Q84.708,15.576,84.636,15.36Q84.708,15.36,84.888,15.432Q85.068,15.504,85.212,15.504Q85.284,15.504,85.464,15.396Q85.644,15.288,85.788,15.288L91.26,16.8Q91.476,16.8,91.548,16.728Q91.908,17.16,92.196,17.16Q92.268,17.16,92.268,17.088Q92.268,17.016,92.412,17.016Q92.484,17.016,92.916,17.196Q93.348,17.376,93.42,17.448L96.372,17.952Q96.372,18.168,96.444,18.24L96.012,18.456L96.012,18.096Q95.58,17.952,95.508,17.952Q95.652,17.952,94.86,18.168Q94.788,18.096,94.428,18.096Q94.284,18.24,94.284,18.312Q94.284,18.384,94.608,18.636Q94.932,18.888,95.148,18.816L96.156,18.672Q96.228,18.672,96.408,18.78Q96.588,18.888,96.732,18.888L96.804,18.888Q96.804,18.816,96.876,18.816Q97.236,18.816,97.956,19.464L98.316,19.896Q98.748,19.896,99.036,19.968Q99.18,19.68,99.288,19.392Q99.396,19.104,99.756,19.104Q99.9,19.104,100.44,19.32Q100.98,19.536,101.052,19.536L101.412,19.536Q101.628,19.464,101.844,19.464Q102.348,19.464,102.42,19.536Q102.996,19.896,103.14,19.896Q103.212,19.896,103.428,19.824Q103.644,19.752,103.788,19.752Q104.22,19.752,104.292,19.968L104.508,19.968Q104.58,19.68,104.94,19.68Q105.084,19.68,105.264,19.788Q105.444,19.896,105.588,19.896L110.34,19.392Q110.844,18.24,110.628,17.016Q110.916,16.368,110.916,16.008Q110.916,16.152,110.7,15.648Q110.628,15.504,110.592,15.324Q110.556,15.144,110.556,14.856Q110.556,14.568,110.772,14.28L111.132,14.28Q111.492,15.144,111.708,15.288L111.564,15.576L111.708,17.088Q111.78,17.592,111.816,17.988Q111.852,18.384,111.852,18.744L111.708,19.104Q113.364,18.888,113.58,18.888Q114.876,18.888,115.596,18.24Q115.668,18.528,115.884,18.528Q115.668,18.528,118.548,17.664Q118.764,17.592,119.34,17.592Q119.124,17.664,118.476,18.312Q117.9,18.384,117.756,18.672Q117.684,18.6,117.54,18.6Q117.468,18.6,116.892,18.852Q116.316,19.104,116.172,19.104Q116.1,19.104,116.028,19.032L115.884,19.032Q115.812,19.032,115.488,19.14Q115.164,19.248,115.092,19.392Q114.804,19.392,113.796,19.824Q113.652,19.824,113.652,19.752L113.508,19.752Q113.436,19.752,113.112,19.932Q112.788,20.112,112.716,20.112L112.572,20.112Q112.572,20.04,112.428,20.04Q112.212,20.04,111.708,20.328Q111.636,20.4,111.636,20.472Q111.924,20.544,111.852,20.76L111.852,21.336Q111.852,21.408,111.708,21.588Q111.564,21.768,111.564,21.912Q111.564,22.056,111.528,22.308Q111.492,22.56,111.42,22.92Q111.636,23.208,111.636,23.928Q111.492,24.144,111.276,24.432Q111.06,24.72,110.916,25.08Q111.06,25.584,110.916,27.024Q110.34,28.896,110.016,29.724Q109.692,30.552,109.692,30.408Q109.332,30.984,109.62,31.056Q109.62,31.128,109.404,31.452Q109.188,31.776,109.116,32.136Q109.332,32.136,109.548,32.352Q109.332,33.72,109.26,33.648Q109.116,34.152,108.72,34.512Q108.324,34.872,108.324,35.232Q108.684,35.304,109.404,35.88L109.908,36.6Q110.556,38.112,110.556,38.184Q110.556,38.256,110.484,38.472L110.124,38.616Q109.98,38.616,108.108,35.88L108.036,35.952Q107.964,36.24,107.784,36.744Q107.604,37.248,107.46,37.896Q107.172,39.48,106.596,40.056Q106.092,40.56,105.948,42.432Q105.804,42.72,105.66,43.044Q105.516,43.368,105.372,43.728Q105.228,43.872,104.94,44.736Q103.788,46.104,103.86,46.392Q103.212,46.824,103.212,47.616Q103.14,47.616,103.068,47.688L102.564,48.624Q102.564,48.624,102.564,48.768Q102.564,48.912,102.636,49.2L102.636,49.272Q102.636,49.344,102.636,49.524Q102.636,49.704,102.564,49.992Q102.276,50.136,102.204,50.316Q102.132,50.496,101.988,50.856Q101.7,51.36,100.98,52.008Q100.98,52.44,101.268,52.944Q101.196,52.944,100.836,53.52Q99.756,53.592,99.756,54.528Q99.756,54.816,99.828,54.96L99.684,54.96Q99.396,54.96,99.144,55.392Q98.892,55.824,98.316,56.4Q98.244,56.76,97.596,57.768Q97.452,57.768,97.092,58.056Q97.092,58.2,96.804,58.812Q96.516,59.424,96.66,59.784Q96.588,59.856,96.48,59.964Q96.372,60.072,96.084,60.216Q96.084,60.288,95.94,60.72L95.364,61.368Q95.004,61.512,94.572,61.728Q94.14,61.944,93.78,62.304L94.284,62.52Q94.14,62.808,93.852,63.348Q93.564,63.888,92.628,64.608Q92.556,64.896,92.376,65.148Q92.196,65.4,91.98,65.832Q91.62,66.048,91.044,66.912Q90.324,67.128,89.82,67.776Q89.1,68.568,88.956,68.82Q88.812,69.072,88.812,69.072Q88.812,69.144,88.704,69.252Q88.596,69.36,87.228,70.728Q87.084,70.728,86.94,70.8Q86.796,70.872,86.436,71.304Q86.148,71.808,86.004,71.808Q85.86,71.808,85.716,71.952Q85.5,72.24,85.104,72.6Q84.708,72.96,84.132,73.176Q84.06,73.32,83.844,73.5Q83.628,73.68,83.412,73.824Q82.764,74.328,81.468,75.768Q81.108,75.768,81.036,75.84L77.868,78Q76.5,79.224,76.428,79.224Q76.356,79.224,76.32,79.152Q76.284,79.08,76.212,79.08Q75.924,79.08,75.78,79.26Q75.636,79.44,75.492,79.584Q74.34,80.16,74.268,80.376Q74.268,80.232,74.052,80.232Q74.052,80.232,73.26,80.736Q72.54,80.88,71.388,81.384Q70.668,81.816,70.74,81.816Q70.668,81.816,70.668,81.744L70.524,81.744Q70.524,81.744,70.128,81.96Q69.732,82.176,68.94,82.32L68.004,82.536Q67.932,82.464,67.428,82.464Q67.428,82.464,67.428,82.5Q67.428,82.536,67.356,82.608L67.212,82.608Q67.14,82.608,66.672,82.644Q66.204,82.68,65.196,82.68L63.108,82.68Q63.036,82.68,62.82,82.536Q62.604,82.392,62.532,82.392Q62.46,82.392,62.172,82.536Q60.876,81.312,60.228,81.024Q59.868,80.664,59.796,80.448L60.804,80.664Q62.748,81.384,62.604,81.384Q62.676,81.384,62.748,81.312L62.892,81.312Q62.964,81.312,63.072,81.42Q63.18,81.528,63.252,81.528L64.188,81.528Q64.188,81.528,64.296,81.564Q64.404,81.6,64.62,81.672Q64.62,81.744,65.268,81.744Q65.916,81.744,65.916,81.672Q66.492,81.384,66.42,81.384Q66.564,81.384,66.564,81.456L66.708,81.456Q66.996,81.456,67.32,81.42Q67.644,81.384,68.004,81.312Q68.076,81.24,68.328,81.096Q68.58,80.952,68.652,80.952Q68.796,80.952,68.796,81.024Q68.796,81.096,68.94,81.096Q69.66,81.096,69.66,80.52L69.948,80.592Q69.876,80.592,70.344,80.412Q70.812,80.232,71.604,79.8Q71.748,79.656,72,79.44Q72.252,79.224,73.476,78.72L73.908,78.072L74.124,78.072Q74.916,78.072,75.276,77.28L76.14,76.848Q76.14,76.704,76.32,76.488Q76.5,76.272,76.932,76.272Q77.076,75.912,77.796,75.696Q77.868,75.624,77.94,75.408Q78.012,75.192,78.3,74.976Q78.372,74.904,78.372,74.544L78.66,74.616Q78.804,74.616,79.092,74.184Q79.092,74.04,79.092,73.896Q79.092,73.752,79.164,73.536Q79.668,73.032,80.028,73.104L80.316,73.176L80.604,72.6Q80.82,72.096,80.532,71.808L81.324,71.16Q81.468,71.16,81.612,71.124Q81.756,71.088,81.972,71.016Q81.972,71.016,81.972,70.98Q81.972,70.944,82.044,70.872Q82.836,70.44,82.908,70.512Q83.052,70.224,82.98,69.864Q83.34,69.216,83.556,69.216L83.628,69.216Q83.556,69.288,83.7,69.288Q83.556,69.288,84.204,68.856Q84.348,68.712,84.204,68.568Q84.924,68.208,85.104,67.884Q85.284,67.56,85.86,66.768Q86.004,66.768,86.076,66.696L86.652,65.544Q87.012,65.328,87.444,64.752Q87.876,64.536,87.984,64.032Q88.092,63.528,88.164,63.096Q88.308,63.024,88.488,62.952Q88.668,62.88,88.956,62.736Q89.1,62.592,89.388,61.8L89.46,61.8Q89.748,61.8,90.468,61.152L90.468,60.864Q90.468,60.936,90.684,60.936Q90.468,60.936,91.836,59.208L92.196,58.776L92.34,58.776Q92.772,58.776,92.988,58.344Q93.276,57.984,93.348,57.552Q93.492,57.552,93.564,57.588Q93.636,57.624,93.708,57.624Q94.284,57.624,94.428,56.904Q94.428,56.76,94.464,56.472Q94.5,56.184,94.572,55.824Q94.572,55.68,95.724,54.312Q95.724,54.096,96.516,52.944L97.092,51.576Q97.452,51.432,97.74,51.144Q97.884,51,97.74,50.784Q97.884,50.424,98.1,50.208Q98.316,49.992,98.748,49.416L98.748,49.056L99.108,48.192L99.612,47.904Q99.684,47.4,99.612,46.968Q100.188,46.896,100.98,44.448L101.124,44.448Q101.628,44.448,101.772,43.512Q101.7,43.44,101.7,43.008Q101.988,42.72,102.564,41.784Q102.564,41.64,102.672,41.352Q102.78,41.064,103.14,40.488Q103.284,40.344,103.428,40.164Q103.572,39.984,103.716,39.696Q103.788,39.336,103.86,38.868Q103.932,38.4,104.076,37.824Q104.22,37.68,104.436,37.428Q104.652,37.176,104.868,36.816L104.868,35.88Q104.94,35.808,105.156,35.088Q102.78,34.296,102.06,34.296L101.844,34.296Q101.772,34.368,101.556,34.368Q101.484,34.368,100.908,34.26Q100.332,34.152,100.188,34.152Q100.116,34.152,100.08,34.224Q100.044,34.296,99.972,34.296Q99.9,34.296,99.756,34.296Q99.612,34.296,99.468,34.224L98.964,34.224Q98.892,34.224,98.64,34.332Q98.388,34.44,98.316,34.44Q96.66,34.44,96.372,34.476Q96.084,34.512,95.58,34.584Q95.436,34.584,94.788,35.232Q92.196,35.304,89.964,36.672Q89.532,36.888,88.884,37.104Q88.236,37.32,88.236,37.464Q88.236,37.464,88.2,37.464Q88.164,37.464,88.164,37.392L88.092,37.392Q88.02,37.392,87.84,37.536Q87.66,37.68,87.012,38.04L86.436,38.04Q86.292,38.4,85.788,38.436Q85.284,38.472,83.628,39.696Q83.412,39.696,83.196,39.768Q83.052,40.056,82.224,40.416Q81.396,40.776,80.964,41.208L80.604,41.208L80.388,41.64L79.524,42.144L78.732,42.504Q78.588,42.72,78.372,42.828Q78.156,42.936,77.94,43.08L76.932,44.088L76.284,45.024L75.708,45.384L75.492,45.672Q74.268,45.888,73.044,47.76Q72.756,47.904,72.288,48.12Q71.82,48.336,71.244,48.624L70.092,50.208Q70.092,50.424,70.02,50.496Q69.732,50.784,69.588,50.784Q69.444,50.784,69.408,50.712Q69.372,50.64,69.228,50.64Q68.868,50.64,68.868,50.928L68.868,51.36L67.86,52.368Q67.716,52.584,67.464,52.836Q67.212,53.088,66.852,53.448Q66.708,53.592,66.852,53.736Q66.636,53.664,66.636,53.592Q66.492,53.736,65.988,54.096Q65.484,54.456,64.908,55.032Q64.836,55.248,64.62,55.536Q64.404,55.824,64.116,56.184Q64.116,56.256,64.152,56.292Q64.188,56.328,64.188,56.472Q64.188,56.688,63.972,57.12Q63.612,57.12,62.892,57.768Q62.892,57.984,63.036,58.272Q62.604,58.56,62.172,58.884Q61.74,59.208,61.812,59.856Q61.668,60,61.344,60.18Q61.02,60.36,60.66,60.576Q60.732,60.648,60.732,61.224Q59.724,62.232,59.796,62.592Q59.508,62.52,59.4,62.952Q59.292,63.384,58.788,64.032L58.788,64.464Q58.356,64.752,57.852,65.256Q57.852,65.4,57.816,65.616Q57.78,65.832,57.708,66.192Q57.06,66.48,57.132,67.02Q57.204,67.56,56.34,68.784Q56.052,69,55.692,69.432Q55.548,69.576,55.476,70.44Q55.476,70.512,55.188,71.016Q55.188,71.304,54.756,72.168Q54.684,72.456,54.756,73.896Q54.756,74.688,54.108,75.12L53.892,76.992Q53.892,77.352,54.252,77.928Q54.108,78.36,54.108,78.864L54.324,79.224Q54.396,79.368,54.396,79.656Q54.396,79.944,54.468,80.304Q54.54,80.376,54.612,80.556Q54.684,80.736,55.044,81.384Q55.116,81.456,55.188,81.636Q55.26,81.816,55.404,81.96Q56.268,83.688,56.772,83.688Q56.916,83.688,56.988,83.616Q56.988,84.048,57.564,84.228Q58.14,84.408,58.212,84.768Q58.068,84.912,57.924,84.912ZM110.628,38.184Q110.628,38.184,110.556,38.184Q110.628,38.112,110.628,38.184ZM148.14,71.016Q148.14,70.944,147.996,70.764Q147.852,70.584,147.852,70.512Q147.852,70.44,148.032,70.152Q148.212,69.864,148.284,69.72Q148.356,69.648,148.824,69.18Q149.292,68.712,149.364,68.712Q149.292,68.712,149.364,68.712Q149.364,68.784,149.58,69Q149.724,68.784,149.796,68.568Q149.868,68.352,149.94,68.064Q150.228,67.992,150.66,67.632Q150.876,67.344,151.38,66.696Q151.884,66.048,153.036,64.68Q153.468,64.608,153.972,63.312Q153.972,63.24,153.972,63.096Q153.972,62.952,154.044,62.736Q154.116,62.808,154.26,63.24Q154.692,63.096,154.764,62.808Q155.7,62.016,156.78,60Q157.572,59.208,157.86,59.136Q158.004,58.272,157.86,58.272Q158.076,58.2,158.22,57.768Q158.508,57.768,159.444,56.472L159.732,56.112Q160.236,55.896,161.028,54.888Q161.172,54.744,161.316,54.6Q161.46,54.456,161.748,54.312Q161.82,54.168,161.676,53.88Q162.108,53.88,161.964,54.024L162.036,54.024Q162.468,54.024,162.54,53.016Q162.468,53.016,162.54,52.944L162.54,53.016Q162.54,53.016,162.684,53.016Q162.612,53.016,163.116,52.512Q163.26,52.368,163.548,52.08Q163.836,51.792,163.908,51.432L163.908,51.144Q163.98,51,164.088,50.856Q164.196,50.712,164.268,50.568Q164.628,49.848,164.772,49.848Q164.7,49.776,164.628,49.632Q164.556,49.488,164.484,49.344Q163.62,50.352,163.62,50.568Q163.62,50.784,163.548,51Q163.404,51,163.224,50.892Q163.044,50.784,162.9,50.784Q161.964,50.784,162.468,51.432L162.108,51.576Q161.388,52.512,160.74,53.196Q160.092,53.88,159.516,54.456L157.932,55.752Q157.86,55.824,157.86,55.896Q157.86,55.968,157.284,56.328Q156.996,56.616,156.672,57.012Q156.348,57.408,155.988,57.912L154.332,59.712Q154.044,60,153.54,60.396Q153.036,60.792,152.388,61.368L151.74,62.088Q151.74,61.944,151.596,61.8Q151.668,61.44,152.064,60.936Q152.46,60.432,153.396,59.424L156.78,55.68L158.508,54.24Q159.228,53.304,161.028,51.288Q161.604,51,162.108,50.568L162.252,50.28Q163.548,49.272,164.412,48.12L165.06,47.76Q165.204,47.544,165.6,47.22Q165.996,46.896,166.86,46.32Q168.732,44.52,168.66,44.088Q169.524,43.656,169.452,42.576L169.596,43.08Q170.028,43.08,170.172,42.576Q170.316,42.072,170.388,41.64L171.972,38.76L172.26,37.68Q172.404,37.608,172.476,37.248Q172.548,36.888,173.268,35.808L173.268,35.592Q173.268,35.376,173.304,35.16Q173.34,34.944,173.412,34.728Q173.556,34.656,173.844,34.224Q173.988,34.08,173.988,33.648L173.844,33.144L173.844,32.784Q173.844,32.784,174.276,32.28Q174.42,32.136,174.276,31.992L174.924,30.84L174.924,30.552Q174.924,30.408,174.924,30.084Q174.924,29.76,174.852,29.328L174.996,29.112L174.996,28.104Q175.212,27.312,175.212,27.6Q175.212,26.88,175.14,26.664L174.06,24.504Q173.772,24.072,173.196,24.072L172.908,24.144Q172.908,24,172.98,23.928Q172.764,23.568,172.476,23.568L172.332,23.568Q172.332,23.64,172.26,23.64L172.188,23.64Q172.26,23.64,172.26,23.64Q172.26,23.568,171.54,23.352Q171.108,23.208,170.748,23.208Q170.676,23.208,170.748,23.28Q170.748,23.424,170.676,23.424Q170.532,23.424,170.496,23.352Q170.46,23.28,170.388,23.28Q170.244,23.28,170.136,23.424Q170.028,23.568,169.956,23.568Q169.812,23.568,169.452,23.496Q169.092,23.424,168.948,23.424L167.364,23.64L165.852,23.784Q165.42,24.072,165.24,24.072Q165.06,24.072,164.268,24.36Q163.62,24.648,163.332,24.648Q163.188,24.648,161.892,25.08L161.676,25.368Q157.572,26.808,154.404,28.608Q154.116,28.68,153.792,28.86Q153.468,29.04,152.964,29.184L147.996,31.56Q146.34,32.568,146.628,32.568L146.484,32.568Q146.484,32.496,146.34,32.496Q146.484,32.496,145.98,32.712Q145.476,32.928,144.828,33.648Q144.108,33.648,144.036,33.936Q143.892,33.936,144.036,33.792Q144.036,33.72,143.964,33.72Q143.892,33.72,143.352,34.26Q142.812,34.8,142.74,34.8Q142.668,34.8,142.596,34.728L142.524,34.728Q142.524,34.728,141.588,35.088Q141.372,35.16,141.372,35.448L139.86,36.312Q139.932,36.312,138.924,36.96L137.124,37.824L134.676,39.12Q134.604,39.12,134.604,39.336Q134.604,39.264,134.46,39.264Q133.956,39.264,133.38,39.768Q133.236,39.768,133.092,39.84Q132.588,40.128,131.724,40.704Q131.652,40.704,130.716,41.424Q130.572,41.28,130.356,41.28Q130.284,41.28,130.104,41.424Q129.924,41.568,129.852,41.568Q129.708,41.568,129.744,41.496Q129.78,41.424,129.708,41.424Q129.204,41.424,128.772,42.288Q128.196,42.288,127.656,42.684Q127.116,43.08,126.972,43.08Q126.9,43.08,126.324,43.512Q126.036,43.584,125.604,43.728Q125.172,43.872,124.596,44.088Q124.452,44.16,124.02,44.52Q123.588,44.88,123.444,44.88L123.372,44.88Q123.444,44.808,123.3,44.808Q123.228,44.808,123.12,44.952Q123.012,45.096,122.94,45.096Q122.796,45.096,121.572,45.456L121.356,45.312Q120.636,45.816,120.564,45.816Q120.492,45.816,120.42,45.744Q120.348,45.672,120.204,45.672Q120.06,45.672,119.736,45.888Q119.412,46.104,119.268,46.104L119.196,46.104Q119.196,46.032,119.124,46.032Q119.052,46.032,119.088,46.14Q119.124,46.248,118.98,46.248Q118.908,46.248,118.8,46.176Q118.692,46.104,118.62,46.104Q118.476,46.104,118.512,46.212Q118.548,46.32,118.476,46.32Q118.332,46.32,118.404,46.248L118.332,46.248Q117.9,46.248,118.044,46.32L117.9,46.464Q117.612,46.464,117.144,46.392Q116.676,46.32,116.604,46.32Q116.532,46.32,116.46,46.428Q116.388,46.536,116.316,46.536Q116.172,46.536,115.452,46.32Q114.732,46.104,114.66,46.104Q114.732,46.104,114.3,46.32L113.076,45.672Q112.716,45.456,112.716,45.384L112.716,45.456L112.644,45.456Q112.428,45.456,111.276,43.872L111.276,43.368Q111.348,43.296,111.348,43.152Q111.348,42.288,111.78,40.776Q111.636,40.56,112.716,38.76Q113.076,38.472,113.436,38.076Q113.796,37.68,114.156,37.104Q114.948,36.384,115.452,35.736Q115.668,35.52,116.244,35.304L116.388,35.016Q116.748,34.656,117.36,34.188Q117.972,33.72,118.764,33.144Q118.908,33.072,119.196,32.784Q119.484,32.496,119.988,32.352Q120.492,31.632,120.78,31.632L120.852,31.632Q120.852,31.704,120.924,31.704Q120.924,31.704,121.032,31.56Q121.14,31.416,121.5,31.416L121.716,31.272Q121.86,31.272,121.86,31.2L121.932,31.2L122.652,30.696L122.652,31.2L121.356,32.136L119.988,32.856L118.188,34.296Q117.828,34.8,116.82,35.376Q116.676,35.88,115.524,36.744Q115.524,36.816,115.524,36.96Q115.524,37.104,115.452,37.248Q115.452,37.248,115.416,37.248Q115.38,37.248,115.308,37.176Q115.02,37.464,114.876,38.04Q114.732,37.896,114.66,37.896Q114.588,38.04,114.48,38.328Q114.372,38.616,114.084,38.976L113.58,39.192L113.58,39.336Q113.58,39.984,112.788,40.416Q112.788,40.488,112.824,40.488Q112.86,40.488,112.86,40.56Q112.86,40.848,112.572,41.316Q112.284,41.784,112.284,41.928Q112.284,42,112.392,42.216Q112.5,42.432,112.5,42.576Q112.5,42.648,112.5,42.792Q112.5,42.936,112.428,43.152Q112.5,43.368,112.716,43.548Q112.932,43.728,113.22,43.872Q113.652,44.088,113.724,44.16Q113.724,44.16,113.796,44.16Q113.868,44.16,113.868,44.304Q113.868,44.448,113.94,44.448Q114.084,44.448,114.156,44.268Q114.228,44.088,114.372,44.088Q114.444,44.088,114.444,44.16L114.588,44.16Q114.732,44.16,114.732,43.944Q114.804,44.016,114.876,44.088Q114.948,44.16,115.092,44.304L115.236,44.304Q115.452,44.304,115.668,44.232Q116.028,44.088,116.316,44.232L117.468,44.448Q117.612,44.448,117.972,44.232Q118.332,44.016,118.764,44.016L119.052,44.016Q119.124,44.088,119.34,44.088L119.484,43.944Q119.7,43.872,120.06,43.692Q120.42,43.512,120.492,43.512Q120.564,43.512,120.708,43.584Q120.852,43.656,120.924,43.656Q120.708,43.656,121.32,43.404Q121.932,43.152,123.012,42.936Q122.868,42.792,123.084,42.792L123.3,42.792Q123.372,42.864,123.588,42.864Q123.66,42.864,123.66,42.792Q123.66,42.72,123.732,42.72L123.876,42.72Q123.804,42.792,123.948,42.792Q124.02,42.792,124.164,42.612Q124.308,42.432,124.38,42.432Q124.452,42.432,124.452,42.504L124.596,42.504Q124.668,42.504,124.74,42.396Q124.812,42.288,124.884,42.288L125.028,42.288Q125.1,42.36,125.172,42.36Q125.532,42.216,126.108,41.892Q126.684,41.568,127.476,41.136Q127.62,41.208,127.908,41.136Q128.196,40.92,128.7,40.704Q129.204,40.488,130.5,39.984Q130.86,39.768,131.652,39.192Q132.444,38.616,132.588,38.616Q132.66,38.616,132.588,38.688Q132.516,38.76,132.66,38.76Q133.38,38.76,133.956,37.968Q134.1,37.896,134.46,37.608Q134.82,37.32,134.964,37.32Q135.036,37.32,135.072,37.392Q135.108,37.464,135.18,37.464Q135.252,37.464,135.612,37.176Q135.972,36.888,136.044,36.888L136.116,36.888Q136.116,36.96,136.188,36.96Q136.62,36.96,137.772,35.88Q138.276,35.376,138.204,35.376Q138.348,35.376,138.276,35.448L138.42,35.448Q138.78,35.448,139.068,35.232Q141.228,33.936,141.156,33.936L141.3,33.936Q141.3,34.008,141.372,34.008Q141.084,34.008,143.316,32.856Q143.604,32.856,144.324,32.28Q144.396,32.28,144.54,32.208Q144.684,32.136,145.332,31.776Q146.052,31.344,146.052,31.2L146.412,31.2Q146.268,31.2,146.412,31.344Q146.916,30.984,147.672,30.48Q148.428,29.976,149.364,29.4L149.436,29.4Q149.508,29.4,150.084,29.112L150.948,28.68Q151.164,28.536,151.308,28.104L151.524,28.32Q151.668,28.176,152.1,27.924Q152.532,27.672,153.54,27.24L153.9,26.88Q154.188,26.808,154.512,26.664Q154.836,26.52,155.196,26.376L156.492,25.368Q156.852,25.296,157.464,25.008Q158.076,24.72,159.3,24.072Q159.588,24.072,160.092,23.856Q161.316,23.136,161.244,23.136Q161.316,23.136,161.316,23.208L161.388,23.208Q161.604,23.208,162.9,22.704Q164.34,22.128,164.484,21.912Q164.628,22.056,164.844,22.056Q164.916,22.056,165.024,21.948Q165.132,21.84,165.204,21.84Q165.276,21.84,165.42,21.984Q165.564,21.984,165.636,21.696Q165.708,21.768,165.996,21.768Q166.14,21.768,166.608,21.516Q167.076,21.264,167.148,21.264L167.508,21.264Q167.652,21.336,167.796,21.336Q168.948,21.336,169.524,20.76Q169.596,20.832,169.956,20.832Q170.028,20.832,170.352,20.832Q170.676,20.832,171.324,20.904Q172.044,20.976,172.368,20.976Q172.692,20.976,172.764,20.976Q172.548,20.976,172.98,20.832Q172.908,20.904,172.908,21.048Q172.908,21.336,173.34,21.552Q173.772,20.904,174.06,20.904Q174.492,20.904,176.292,21.696Q176.292,21.696,176.4,21.876Q176.508,22.056,176.652,22.056L176.724,22.056Q176.724,21.984,176.796,21.984Q177.228,21.984,177.516,23.352Q177.804,23.496,178.02,23.496Q178.092,23.64,178.272,23.928Q178.452,24.216,178.74,24.576Q178.74,24.648,178.776,24.828Q178.812,25.008,178.884,25.224Q179.028,25.728,179.1,26.088Q179.172,26.448,179.244,26.808L179.244,27.6Q179.244,27.672,179.352,27.852Q179.46,28.032,179.46,28.104Q179.46,28.176,179.352,28.356Q179.244,28.536,179.244,28.608Q179.316,28.824,179.316,29.544L179.1,29.832Q179.028,30.264,178.884,30.84Q178.74,31.416,178.74,31.992Q178.308,32.136,178.236,32.424Q178.092,33.144,177.876,33.18Q177.66,33.216,177.732,34.224Q177.3,34.656,176.94,35.304Q176.868,35.952,176.292,37.032L176.364,37.32L175.788,37.752Q175.788,37.752,175.932,38.4Q175.932,38.472,176.148,38.472Q176.436,38.472,176.652,37.896Q176.364,37.896,177.588,37.536Q178.164,37.392,178.128,37.284Q178.092,37.176,178.596,36.96Q179.1,36.6,179.532,36.276Q179.964,35.952,180.324,35.736Q180.54,35.736,180.9,35.484Q181.26,35.232,181.908,34.872L182.052,34.728L182.916,34.152Q183.132,34.08,183.456,33.972Q183.78,33.864,184.212,33.648Q184.932,33.072,185.292,32.784Q185.652,32.496,185.652,32.496Q185.724,32.496,185.724,32.568L185.868,32.568Q185.652,32.568,187.092,31.776Q188.028,31.488,189.9,30.336Q189.828,30.552,189.972,30.552Q190.332,30.552,191.34,29.976Q191.916,29.616,192.204,29.76Q192.276,29.76,192.348,29.688Q192.42,29.616,192.708,29.688L193.5,29.04Q193.5,29.184,193.644,29.184L193.932,29.184Q194.292,29.184,194.616,28.968Q194.94,28.752,195.228,28.68L195.444,28.68Q195.516,28.752,195.66,28.752L197.892,28.752Q197.964,28.752,198.072,28.644Q198.18,28.536,198.252,28.536Q198.324,28.536,198.288,28.644Q198.252,28.752,198.396,28.752L199.188,28.536Q199.476,28.536,201.132,29.688L201.348,29.544L201.996,30.552Q202.428,30.696,202.5,30.696L202.5,31.2Q202.572,31.416,202.572,31.632Q202.572,31.488,202.068,32.208L202.068,32.712Q201.996,32.784,201.924,32.856Q201.852,32.928,201.78,33.072Q201.78,33.36,201.78,33.72Q201.78,34.08,201.708,34.584L200.916,36.6L199.044,39.552Q198.9,39.696,198.648,39.948Q198.396,40.2,198.54,40.632Q197.892,40.92,197.316,41.856L197.388,42.648L197.604,42.432Q197.748,42.288,198.072,42.108Q198.396,41.928,198.756,41.64Q198.828,41.496,199.188,41.136L201.276,39.84Q202.5,39.192,202.212,39.192L202.356,39.192Q202.356,39.264,202.428,39.264Q202.5,39.264,202.68,39.12Q202.86,38.976,202.932,38.976Q203.004,38.976,203.004,39.048L203.148,39.048Q203.22,39.048,203.328,38.976Q203.436,38.904,203.508,38.904Q203.58,38.904,204.516,38.544Q205.452,38.184,205.524,38.184Q205.596,38.184,205.812,38.292Q206.028,38.4,206.172,38.4Q206.244,38.4,206.604,38.328Q206.964,38.256,207.108,38.256Q207.756,38.256,208.692,39.12Q208.836,39.336,209.16,39.66Q209.484,39.984,209.844,40.344Q209.916,40.632,210.06,40.848Q210.204,41.064,210.348,41.28L210.996,43.944Q210.996,44.016,211.176,44.412Q211.356,44.808,211.356,44.88Q211.356,44.88,211.068,45.384L210.924,45.24L210.78,45.312L210.636,45.168Q210.276,45.312,210.276,45.672Q210.276,45.744,210.384,45.96Q210.492,46.176,210.492,46.32L210.492,47.832Q210.636,48.048,210.78,48.372Q210.924,48.696,211.068,49.2Q211.14,49.488,211.212,49.884Q211.284,50.28,211.428,50.784Q211.644,51,211.968,51.36Q212.292,51.72,212.652,52.296Q213.012,52.872,213.444,53.088L213.66,53.088Q213.804,53.088,213.912,53.016Q214.02,52.944,214.164,52.944L214.38,53.088L215.244,53.088Q215.676,53.088,215.676,53.592Q215.676,54.024,215.172,54.312Q214.668,54.6,214.452,54.6Q214.38,54.6,213.588,54.024Q212.868,53.376,212.652,53.376Q212.436,53.376,212.58,53.52Q212.508,53.448,212.508,53.16Q212.292,53.088,211.14,51.288L210.204,50.28L209.772,48.984L209.196,48.48Q209.34,48.336,209.196,48.192Q209.052,48.048,208.836,47.328L208.62,46.68L207.684,45.456L206.892,43.872Q206.892,43.872,206.712,43.332Q206.532,42.792,206.172,42.288Q205.812,41.784,205.38,41.784Q205.236,41.784,205.236,41.856L205.164,41.856Q205.38,41.856,204.444,41.352Q204.372,41.208,203.796,41.136L203.508,40.776L203.292,41.208L202.788,40.992Q202.644,40.992,202.536,41.1Q202.428,41.208,202.356,41.208Q202.284,41.208,202.284,41.136L202.212,41.136Q202.14,41.136,201.996,41.352Q201.852,41.568,201.708,41.568Q201.492,41.568,201.492,41.424L200.628,41.928L200.34,41.856L198.468,43.008L198.324,43.008Q198.324,42.936,198.252,42.936Q198.396,42.936,196.74,44.376Q196.02,44.736,195.732,45.096Q195.3,45.456,194.652,45.996Q194.004,46.536,193.068,47.256Q192.348,47.832,192.096,48.192Q191.844,48.552,191.484,49.056Q191.412,49.056,191.196,49.416Q190.98,49.776,190.764,50.064Q190.836,49.992,190.62,49.992Q190.836,49.992,190.404,50.136L189.612,51.216Q189.468,51.288,189.18,51.396Q188.892,51.504,188.388,51.792Q188.172,51.576,187.74,51.576L187.596,51.072Q187.596,50.208,188.1,50.208Q188.172,50.208,188.136,50.28Q188.1,50.352,188.244,50.352L189.252,49.416L189.972,48.552Q190.116,48.48,190.296,48.336Q190.476,48.192,190.764,47.976Q190.908,47.976,190.98,47.904Q191.268,47.616,191.592,47.184Q191.916,46.752,192.348,46.176Q192.348,45.96,192.42,45.816Q193.14,44.952,193.284,44.376L194.004,43.512L194.436,42.36L195.3,40.992L195.876,39.84Q196.308,38.832,196.776,37.536Q197.244,36.24,197.748,34.584Q197.748,34.368,197.82,34.296Q197.82,33.792,197.748,33.936Q197.748,33.648,197.712,33.468Q197.676,33.288,197.604,33.144L197.604,32.712Q197.532,32.496,197.388,32.208Q197.244,31.92,197.1,31.56Q197.1,31.56,196.668,31.416Q196.668,31.416,196.524,31.236Q196.38,31.056,196.308,31.056L196.164,31.056Q196.164,31.128,196.092,31.128Q196.092,31.128,195.588,30.84Q195.516,30.84,195.084,31.056Q194.652,31.272,194.58,31.272Q194.436,31.272,194.508,31.2L194.364,31.2Q194.292,31.2,194.076,31.344Q193.86,31.488,193.716,31.488L193.572,31.2L192.564,31.416Q192.06,31.56,191.844,31.668Q191.628,31.776,191.556,31.776Q191.484,31.776,191.484,31.704L191.412,31.704Q191.268,31.704,191.052,31.92L189.828,32.352Q189.252,32.064,188.964,32.064Q188.82,32.064,188.532,32.352Q188.46,32.568,188.172,32.748Q187.884,32.928,187.74,33.144Q187.668,33.144,187.524,33.072Q187.38,33,187.236,33Q187.092,33.144,187.164,33.36L187.02,33.36Q186.516,33.36,185.904,33.792Q185.292,34.224,183.852,34.8Q183.348,35.088,182.448,35.736Q181.548,36.384,181.476,36.384Q181.332,36.384,181.332,36.312L181.188,36.312Q181.116,36.312,179.892,37.32Q179.748,37.392,179.532,37.464Q179.316,37.536,178.956,37.608Q178.74,38.4,176.652,38.976Q176.508,39.408,175.5,39.912Q175.5,39.984,175.356,40.272Q174.42,40.56,173.916,41.28Q173.916,41.568,173.556,42Q172.836,42.72,172.692,43.512Q171.972,44.664,172.044,44.592Q172.116,44.664,172.044,44.664L172.044,44.592Q171.972,44.592,171.828,44.52L171.468,44.952Q171.468,45.096,171.396,45.492Q171.324,45.888,171.324,46.032L171.036,45.816Q170.964,45.816,170.892,45.744L170.46,46.464Q170.388,46.464,170.244,46.68Q169.596,46.968,169.668,47.688L168.804,48.48Q168.732,48.552,168.66,48.804Q168.588,49.056,168.444,49.488Q168.3,49.56,168.12,49.704Q167.94,49.848,167.652,49.992L167.364,50.784Q167.076,50.784,166.572,51.504Q166.428,51.648,166.248,51.864Q166.068,52.08,165.924,52.512Q164.412,53.16,164.196,54.672Q163.692,54.744,163.332,55.32Q163.332,55.536,163.116,56.112Q162.828,56.256,162.504,56.508Q162.18,56.76,161.748,57.12L161.1,57.984Q160.956,58.128,160.776,58.308Q160.596,58.488,160.452,58.56Q160.236,58.848,160.38,58.992Q160.236,59.064,160.02,59.136Q159.804,59.208,159.516,59.352L159.3,60.072Q159.3,60.288,158.868,60.432Q158.436,61.296,158.148,61.296Q158.004,61.296,157.932,61.224Q157.572,61.944,156.852,62.88Q156.78,62.952,156.78,63.096Q156.42,63.096,156.204,63.348Q155.988,63.6,155.844,63.6L155.772,63.6Q155.772,63.528,155.7,63.528Q155.7,63.528,155.556,63.744Q155.412,63.96,155.124,64.464L154.764,65.04Q154.332,65.184,154.26,65.472Q153.828,65.616,153.576,66.048Q153.324,66.48,153.252,66.48L153.108,66.48Q153.036,66.408,152.964,66.408Q152.676,66.408,152.46,66.984Q151.956,67.2,151.812,67.56L150.516,68.64Q149.724,69,149.436,69.432L149.436,69.504Q149.436,69.72,149.256,70.08Q149.076,70.44,148.14,71.016ZM122.364,32.064L122.076,31.776L122.148,31.632L122.436,31.92L122.364,32.064ZM113.652,44.232L113.724,44.232Q113.724,44.232,113.652,44.232ZM146.7,71.952L146.916,71.232Q147.06,71.16,147.276,71.16Q147.636,71.16,147.636,71.808Q146.844,72.096,146.7,71.952Z" fill="#000000" fill-opacity="1"/></g></svg>