<svg xmlns="http://www.w3.org/2000/svg" xmlns:xlink="http://www.w3.org/1999/xlink" fill="none" version="1.1" width="216" height="72" viewBox="0 0 216 72"><g><path d="M59.364,65.76Q59.292,65.76,59.076,65.616Q58.86,65.472,58.716,65.472L58.5,65.472Q58.428,65.544,58.284,65.544Q57.996,64.896,57.42,64.536Q57.276,64.464,56.844,64.464Q56.34,63.744,55.188,63.312Q55.188,63.312,55.188,63.276Q55.188,63.24,55.26,63.168Q54.972,62.952,54.972,62.952Q54.9,62.952,54.9,63.024L54.828,63.024Q54.612,63.024,53.604,61.8Q53.604,61.656,54.756,61.152Q54.468,61.008,54.216,60.828Q53.964,60.648,53.604,60.36Q53.46,59.856,52.704,59.316Q51.948,58.776,51.804,58.92L50.724,58.632Q50.724,58.488,50.508,58.344Q50.292,58.2,50.364,58.2Q50.22,58.2,50.22,58.272Q50.22,58.344,50.148,58.344Q50.004,58.344,49.104,58.092Q48.204,57.84,48.132,57.84Q48.132,57.84,47.844,57.984L46.908,56.976Q46.476,57.12,46.62,57.12Q46.476,57.12,46.116,56.796Q45.756,56.472,45.684,56.472Q45.54,56.472,45.576,56.544Q45.612,56.616,45.54,56.616Q45.468,56.616,45.252,56.436Q45.036,56.256,44.964,56.256L44.676,56.256Q44.676,56.184,44.748,56.112Q44.604,55.968,44.532,55.968Q44.1,55.968,43.524,55.752Q42.804,55.392,41.94,55.032Q41.076,54.672,39.996,54.24Q32.148,51.288,31.284,51.288L30.78,51.432L30.78,51.288Q30.204,50.712,30.06,50.712Q29.772,50.712,29.628,50.856Q28.62,50.424,28.692,50.28Q28.62,50.352,28.62,50.424Q27.972,50.064,27.612,49.488Q27.324,49.632,27.324,49.632Q27.18,49.632,27.144,49.56Q27.108,49.488,27.036,49.488Q26.892,49.488,26.532,49.74Q26.172,49.992,26.028,49.992Q25.956,49.992,25.632,49.812Q25.308,49.632,25.236,49.632L24.948,49.704Q24.66,49.272,24.3,49.128Q24.3,49.056,24.156,49.056Q24.012,49.056,24.012,49.164Q24.012,49.272,23.868,49.272Q23.796,49.272,23.796,49.2Q23.796,49.056,23.724,49.056Q23.58,49.056,23.544,49.164Q23.508,49.272,23.436,49.272Q22.356,48.768,21.636,48.768Q21.564,48.768,21.42,48.912Q21.276,48.768,21.06,48.516Q20.844,48.264,20.556,48.264L20.052,48.408L19.836,48.408Q19.764,48.408,19.584,48.408Q19.404,48.408,19.188,48.336L18.972,48.552Q18.756,48.264,18.252,47.832Q18.108,47.904,17.532,48.48Q17.46,48.552,17.388,48.732Q17.316,48.912,17.172,49.128Q16.668,49.632,16.128,50.172Q15.588,50.712,15.588,51.072Q15.372,51.144,15.192,51.324Q15.012,51.504,14.868,51.648Q14.868,51.792,14.364,52.512Q14.148,52.584,14.184,52.548Q14.22,52.512,13.968,52.8Q13.716,53.088,12.492,54.096Q12.42,54.168,11.988,54.312L10.908,55.32Q10.692,55.392,10.692,55.392L9.468,56.256L9.108,56.04Q9.036,56.04,8.964,56.148Q8.892,56.256,8.82,56.256Q8.748,56.256,8.748,56.112Q8.676,56.04,8.604,56.04Q8.748,56.04,8.244,56.328L7.596,55.824L7.164,56.04Q7.164,56.04,6.876,55.68Q6.588,55.32,6.444,55.32Q6.444,55.248,6.588,55.104L6.372,54.672L6.372,54.456Q6.372,54.24,6.3,53.844Q6.228,53.448,6.012,52.944Q6.012,52.584,6.336,52.26Q6.66,51.936,6.66,51.648L7.38,52.008Q7.38,52.152,7.38,52.368Q7.38,52.584,7.452,52.872Q7.884,53.952,8.604,54.24Q8.676,54.312,8.784,54.6Q8.892,54.888,8.964,54.888Q9.108,54.888,9.036,54.816L9.108,54.816L9.396,55.032Q9.54,54.672,9.828,54.672Q9.9,54.672,9.9,54.744Q9.9,54.816,10.044,54.816Q10.116,54.816,10.512,54.276Q10.908,53.736,10.98,53.736Q11.052,53.736,11.052,53.808L11.124,53.808Q11.052,53.808,12.636,52.224L13.284,51.288Q13.428,51.288,14.652,50.136L14.652,49.56Q14.94,49.2,15.264,48.696Q15.588,48.192,16.092,47.616Q15.804,47.616,15.516,47.688Q15.228,47.76,15.156,47.76Q15.084,47.76,15.084,47.652Q15.084,47.544,14.94,47.544Q14.94,47.544,14.868,47.58Q14.796,47.616,14.652,47.688L14.364,47.688Q13.932,47.688,13.284,47.472L13.068,47.472Q12.996,47.472,12.816,47.616Q12.636,47.76,12.492,47.76L11.772,47.76Q11.7,47.76,11.7,47.652Q11.7,47.544,11.628,47.544Q11.484,47.544,10.728,47.76Q9.972,47.976,9.828,47.976Q9.756,47.976,9.684,47.904Q9.612,47.832,9.54,47.832L8.964,47.976Q8.892,48.048,8.748,48.192Q8.604,48.336,8.46,48.336L8.388,48.336Q8.388,48.264,8.244,48.264Q8.172,48.264,7.992,48.408Q7.812,48.552,7.74,48.552Q7.596,48.552,7.596,48.48L7.38,48.48Q7.38,48.552,7.236,48.552L6.948,48.264Q6.876,48.336,6.624,48.624Q6.372,48.912,6.084,48.768Q6.012,48.912,5.976,49.056Q5.94,49.2,5.94,49.344L6.012,49.488Q6.084,49.488,6.228,49.632L7.02,48.984Q7.02,48.984,7.596,49.776L7.02,50.28Q6.732,49.992,6.372,49.992Q6.3,49.992,5.688,50.388Q5.076,50.784,5.004,50.784Q4.932,50.784,4.86,50.676Q4.788,50.568,4.716,50.568Q4.644,50.568,4.608,50.64Q4.572,50.712,4.428,50.712L4.212,50.568L3.564,50.568Q3.492,50.568,3.492,50.676Q3.492,50.784,3.348,50.784Q3.276,50.784,3.24,50.712Q3.204,50.64,3.132,50.64Q2.772,50.64,2.484,51.144Q2.268,50.928,2.052,50.928Q1.836,50.928,1.548,51.216L1.26,51Q1.188,51,1.188,51.072L1.116,51.072L0.828003,50.784Q0.468003,50.784,0.324003,50.136L0.180003,49.344L0.180003,48.768L0.468003,48.336Q1.404,47.544,1.62,47.544Q1.764,47.544,1.98,47.616L2.268,47.616Q2.412,47.616,2.628,47.508Q2.844,47.4,2.916,47.4Q2.844,47.4,2.88,47.436Q2.916,47.472,2.988,47.4L2.916,47.4Q2.772,47.472,3.06,47.616Q4.5,47.184,4.428,47.184L4.5,47.184Q4.5,47.256,4.572,47.256Q4.716,47.256,4.896,47.112Q5.076,46.968,5.22,46.968Q5.58,46.968,6.192,46.932Q6.804,46.896,7.524,46.824L8.244,46.608Q8.388,46.608,8.316,46.68Q8.244,46.752,8.316,46.752L9.036,46.752Q9.18,46.752,9.396,46.644Q9.612,46.536,9.684,46.536Q9.828,46.536,9.756,46.608Q9.684,46.68,9.756,46.68L10.908,46.68L11.124,46.608Q11.268,46.608,11.664,46.68Q12.06,46.752,12.132,46.752Q12.204,46.752,12.456,46.68Q12.708,46.608,12.852,46.608L13.068,46.824Q13.356,46.752,13.536,46.752Q13.716,46.752,13.788,46.68L13.932,46.824Q14.076,46.824,14.364,46.788Q14.652,46.752,15.012,46.68Q14.796,46.608,15.3,46.608Q15.372,46.608,15.516,46.716Q15.66,46.824,15.732,46.824Q15.804,46.824,15.84,46.752Q15.876,46.68,15.948,46.68Q16.02,46.68,16.092,46.752Q16.164,46.824,16.236,46.824Q16.308,46.824,16.74,46.68Q17.316,45.744,17.82,44.808Q18.324,43.872,18.756,42.936Q18.972,42.648,19.188,42.324Q19.404,42,19.548,41.496Q19.836,41.424,19.98,40.92Q20.124,40.92,20.304,40.74Q20.484,40.56,20.484,39.912Q21.276,38.904,21.132,38.544L22.284,37.032Q22.212,36.6,22.284,36.312Q22.356,36.312,22.5,36.096Q22.644,35.88,22.86,35.88Q22.932,35.88,23.004,35.952Q23.004,35.304,23.076,35.16Q23.004,34.944,23.004,34.8L23.22,34.368Q23.508,34.296,23.688,34.152Q23.868,34.008,24.012,33.864Q24.012,33.864,24.264,33.216Q24.516,32.568,24.804,32.568Q24.948,32.064,26.028,30.768L26.532,29.4Q27.396,28.896,27.252,28.104Q27.612,27.6,28.008,27.204Q28.404,26.808,28.908,26.448L29.124,26.016Q29.052,25.944,28.908,26.088L29.124,25.512Q29.124,25.512,29.124,25.728Q29.124,25.944,29.34,25.728Q29.484,25.512,29.34,25.368Q29.628,25.08,29.484,24.936Q29.484,24.864,29.484,24.864L29.484,24.936Q29.556,24.936,29.7,24.936Q29.988,24.936,29.988,24.504Q29.988,24.36,30.06,23.928Q30.132,23.496,30.204,23.352Q30.204,23.424,30.348,23.712Q30.42,23.568,30.564,23.352Q30.708,23.136,30.852,22.848L31.428,22.272Q31.572,21.912,31.5,21.912Q31.716,21.768,32.22,21.264Q32.292,21.12,32.292,20.94Q32.292,20.76,32.364,20.472Q32.868,20.184,32.868,19.896Q33.228,19.752,33.588,19.392Q33.516,19.248,33.516,19.104Q33.516,18.96,33.444,18.744Q33.516,18.672,33.516,18.564Q33.516,18.456,33.588,18.384Q34.884,18.24,34.956,17.304L36.036,16.44Q36.18,16.296,36.036,16.224Q36.252,16.224,36.468,15.432Q37.044,15,37.476,14.928Q37.404,15.072,37.548,15.36Q37.692,15.144,37.944,14.82Q38.196,14.496,38.556,14.064Q38.484,13.992,38.412,14.064Q38.412,13.992,38.412,13.848Q38.412,13.704,38.484,13.416L38.772,13.416Q38.916,13.416,39.168,13.164Q39.42,12.912,39.564,12.912L39.636,12.984L39.636,12.408Q39.852,12.192,39.924,12.336Q40.068,12.192,40.248,11.976Q40.428,11.76,40.716,11.472Q41.148,11.544,41.184,11.544Q41.22,11.544,41.364,11.688Q42.084,10.536,41.94,10.536Q42.372,10.536,42.444,10.608Q42.804,10.176,42.876,10.176Q42.804,10.176,43.092,10.464Q43.812,9.744,43.74,9.744L43.884,9.744Q43.884,9.816,43.956,9.816Q44.1,9.816,44.244,9.6Q44.388,9.384,44.532,9.384Q44.676,9.456,44.748,9.456Q44.82,9.384,44.676,9.24Q45.108,9.168,46.044,8.448Q46.116,8.448,46.44,8.448Q46.764,8.448,47.34,8.376Q47.7,8.16,47.7,8.088L47.7,8.16L47.772,8.16Q47.844,8.16,47.952,8.088Q48.06,8.016,48.204,8.016Q48.132,8.016,49.644,7.512Q50.508,7.224,51.156,7.224Q51.228,7.224,51.228,7.296Q51.156,7.368,51.228,7.368Q51.3,7.368,51.552,7.26Q51.804,7.152,51.876,7.152Q51.948,7.152,52.128,7.26Q52.308,7.368,52.38,7.368Q52.524,7.368,52.884,7.008Q53.1,7.008,53.64,6.864Q54.18,6.72,54.252,6.72Q54.324,6.72,54.432,6.828Q54.54,6.936,54.612,6.936Q54.684,6.936,54.72,6.828Q54.756,6.72,54.828,6.72Q54.9,6.72,55.044,6.936Q55.188,7.152,55.26,7.152L56.052,7.152L56.196,7.296Q56.34,7.296,56.412,7.368L56.772,7.368Q56.844,7.296,56.916,7.296Q57.06,7.296,57.24,7.404Q57.42,7.512,57.492,7.512L57.636,7.512Q57.708,7.44,57.78,7.44Q57.924,7.44,58.104,7.62Q58.284,7.8,58.428,7.8Q58.5,7.8,58.5,7.728L58.572,7.728Q58.716,7.872,58.86,8.088Q59.004,8.304,59.724,8.448Q59.796,8.448,59.868,8.592Q59.94,8.736,60.012,8.736Q60.156,8.664,60.228,8.664Q60.3,8.736,60.444,9.168Q61.164,9.312,61.416,9.78Q61.668,10.248,61.956,10.32L61.956,10.248L62.172,11.256Q62.244,11.616,62.316,12.156Q62.388,12.696,62.532,13.416Q62.388,13.56,62.244,13.56L61.74,15.936Q61.308,17.88,60.372,19.104L59.652,20.04Q59.796,20.472,59.58,20.76Q58.932,21.696,58.284,21.696Q58.14,21.696,58.068,21.624L57.852,21.624Q57.924,21.552,57.924,21.264Q58.572,20.688,58.572,20.112L58.86,19.824L58.86,19.536Q59.58,18.816,59.58,17.808Q59.868,17.808,60.084,17.592Q59.868,16.872,59.796,16.8Q59.868,16.656,60.12,16.368Q60.372,16.08,60.228,15.72Q60.156,15.648,60.012,15.648Q60.156,15.36,60.372,15.288L60.516,14.64L60.084,13.992L60.588,13.488Q60.732,13.056,60.444,12.912L60.66,12.696Q60.66,12.336,60.48,12.372Q60.3,12.408,60.156,12.12Q60.012,11.832,60.012,10.68Q59.724,10.392,59.652,10.032L59.508,10.176L59.508,9.528L59.364,9.744Q59.148,9.672,59.04,9.384Q58.932,9.096,58.86,9.096L58.788,9.096Q58.788,9.168,58.716,9.168Q58.572,9.168,58.284,8.88Q57.996,8.592,57.924,8.592Q57.78,8.592,57.78,8.664Q57.78,8.736,57.636,8.736Q57.564,8.736,57.456,8.664Q57.348,8.592,57.276,8.592Q57.132,8.592,57.132,8.664Q57.132,8.736,57.06,8.736L56.844,8.736Q56.772,8.664,56.628,8.664Q56.484,8.664,56.34,8.52L56.196,8.664Q55.188,8.664,55.26,8.592Q54.612,8.592,53.82,9.096Q53.748,8.88,53.388,8.88L53.316,8.88Q53.028,8.88,52.812,9.312Q52.668,9.312,52.524,9.168Q52.164,9.24,51.408,9.744Q50.652,10.248,50.364,10.248L50.004,10.248Q50.004,10.248,49.716,9.96Q49.068,10.824,48.996,10.824Q48.924,10.824,48.492,10.968Q48.492,10.824,48.348,10.68Q48.204,10.824,47.988,11.004Q47.772,11.184,46.764,12.192Q46.188,11.976,46.116,11.904Q45.972,11.832,45.72,12.3Q45.468,12.768,45.324,12.912Q45.396,12.912,45.324,12.912Q45.324,12.84,45.252,12.768Q44.892,12.768,44.676,12.84Q44.532,13.2,43.884,13.632L43.668,13.488L43.092,13.992Q43.164,14.064,43.164,14.568Q41.508,15.576,41.796,15.576Q41.652,15.576,41.4,15.288Q41.148,15,41.292,14.856L41.148,14.856Q40.716,14.856,40.644,15.36Q40.644,15.504,40.716,15.432Q40.932,15.72,40.932,15.936Q40.932,16.224,40.572,16.584Q40.5,16.728,40.428,16.908Q40.356,17.088,39.996,17.448Q38.988,18.384,39.06,18.672Q39.06,18.6,38.916,18.6Q38.628,18.6,38.412,18.96Q38.196,19.32,38.052,19.536L36.9,20.688L36.468,21.552L35.46,22.416Q35.388,22.488,35.316,22.704Q35.244,22.92,35.172,23.28Q34.452,23.424,34.38,23.712Q33.444,24.792,32.508,26.52L32.148,26.808Q31.572,27.672,30.672,29.004Q29.772,30.336,28.548,32.136Q28.476,32.28,28.404,32.496Q28.332,32.712,27.9,33Q27.828,33.072,27.9,33.144Q27.612,33.432,27.252,34.008L25.74,36.744Q25.524,36.96,25.308,37.212Q25.092,37.464,24.804,37.968Q24.3,38.832,23.508,39.948Q22.716,41.064,21.708,42.432L20.916,43.8Q20.628,43.872,20.268,44.232Q19.98,44.664,19.656,45.348Q19.332,46.032,18.828,46.968Q18.972,47.112,18.972,47.112Q18.972,47.112,19.116,46.968L19.188,46.968Q19.188,46.968,19.116,46.968Q19.188,47.04,20.052,47.256L20.196,47.112L20.412,47.112Q20.556,47.112,20.772,47.148Q20.988,47.184,21.276,47.256Q21.636,47.472,21.42,47.472Q21.564,47.472,21.564,47.4Q21.564,47.328,21.708,47.328Q21.78,47.328,21.888,47.4Q21.996,47.472,22.14,47.472L22.284,47.472Q22.356,47.4,22.428,47.4Q22.716,47.4,22.968,47.58Q23.22,47.76,23.652,47.76Q23.724,47.76,23.868,47.652Q24.012,47.544,24.084,47.544Q24.156,47.544,24.264,47.652Q24.372,47.76,24.444,47.76Q24.588,47.76,24.588,47.724Q24.588,47.688,24.66,47.616Q24.66,47.688,24.876,47.904Q25.308,47.76,25.308,47.76Q25.452,47.76,25.668,47.904Q25.884,48.048,25.956,48.048Q26.1,48.048,26.1,47.976L26.172,47.976Q26.244,47.976,26.424,48.084Q26.604,48.192,26.748,48.192Q26.82,48.192,26.892,48.12Q26.964,48.048,27.036,48.048Q27.036,48.048,27.9,48.552L28.188,48.264Q28.116,48.336,28.116,48.552L28.404,48.624Q28.476,48.624,28.476,48.552Q28.476,48.48,28.548,48.48Q28.62,48.48,28.764,48.588Q28.908,48.696,29.052,48.696Q29.124,48.696,29.052,48.624Q28.98,48.552,29.124,48.552Q29.196,48.552,29.304,48.696Q29.412,48.84,29.556,48.84Q29.7,48.84,29.772,48.768Q30.204,49.272,30.276,49.272Q30.492,49.272,30.708,49.2L31.14,49.2L31.716,49.344Q31.86,49.344,31.932,49.2Q32.004,49.056,32.076,49.056Q31.932,49.128,32.868,49.632Q33.156,49.632,33.588,50.064L33.948,49.704L34.164,49.992L34.308,49.92Q34.452,49.92,34.812,50.172Q35.172,50.424,35.244,50.424Q35.316,50.424,35.244,50.352Q35.244,50.28,35.244,50.28Q35.244,50.28,35.244,50.352Q35.316,50.352,35.892,50.352Q35.964,50.352,36.144,50.496Q36.324,50.64,36.396,50.64Q36.54,50.64,36.756,50.424Q36.972,50.856,37.188,50.856Q37.116,50.856,37.476,50.712Q37.62,50.784,37.908,50.856Q38.196,50.928,38.484,51.072Q39.276,51.576,39.42,51.576Q39.564,51.576,39.564,51.504Q39.564,51.432,39.708,51.432Q39.78,51.432,39.924,51.576Q40.068,51.72,40.14,51.72L40.284,51.72Q40.212,51.648,40.356,51.648Q40.932,51.648,41.796,52.116Q42.66,52.584,42.588,52.584Q42.66,52.584,42.876,52.368Q42.948,52.44,42.984,52.62Q43.02,52.8,43.164,52.8L43.452,52.8Q43.74,52.8,44.388,53.088L44.46,53.088Q44.46,53.016,44.604,53.016Q44.676,53.016,45.648,53.52Q46.62,54.024,47.124,54.096Q47.124,54.096,47.7,54.456Q47.916,54.456,48.24,54.564Q48.564,54.672,48.42,54.672L48.636,54.672Q48.636,54.744,48.564,54.816Q49.068,55.176,49.716,55.536L50.436,55.68L51.588,56.328Q51.66,56.328,51.588,56.4Q51.516,56.472,51.66,56.472Q51.588,56.472,51.804,56.4Q51.804,56.688,51.948,56.688L52.668,56.688Q52.74,56.76,52.74,56.616Q52.74,56.256,52.452,56.256Q52.452,56.256,52.38,56.292Q52.308,56.328,52.236,56.328Q52.308,56.184,52.308,56.076Q52.308,55.968,52.308,55.968Q51.804,55.248,51.804,54.6Q51.804,54.312,51.948,53.88L51.3,53.448Q51.3,53.232,51.228,53.016L51.084,53.16L51.084,52.872Q51.156,52.8,51.156,52.584Q51.156,52.224,50.94,51.576Q51.156,51.576,51.3,51.432Q50.94,51,50.58,49.344Q50.724,48.912,50.724,48.696Q50.724,48.264,50.508,47.832Q50.652,47.616,50.58,47.544L50.508,47.472Q50.868,47.112,50.508,47.112Q50.58,47.04,50.58,46.608Q50.652,46.608,50.724,46.68L51.084,46.392L51.516,48.768Q51.372,48.984,51.516,49.344L52.236,52.872Q52.596,53.088,52.704,53.412Q52.812,53.736,53.1,54.312Q53.1,55.248,55.044,57.984L56.124,58.416Q56.412,58.56,56.916,58.92Q57.42,59.28,58.212,59.856Q58.284,60.072,58.14,60.36Q58.212,60.792,58.788,61.8Q58.716,61.872,58.644,61.98Q58.572,62.088,58.356,63.384Q58.284,63.456,58.284,63.528Q58.284,64.032,58.608,64.428Q58.932,64.824,59.868,65.4L59.868,65.76L59.364,65.76ZM59.796,16.872Q59.796,16.872,59.796,16.8L59.796,16.872ZM28.764,50.28Q28.764,50.28,28.692,50.28L28.764,50.28ZM57.924,75.912Q57.348,75.912,55.476,74.544Q55.044,74.184,54.72,73.68Q54.396,73.176,54.18,73.176Q53.748,71.664,53.1,71.664Q53.244,71.52,53.244,71.376Q53.244,71.232,52.596,69.648L52.596,69.36Q52.524,69.216,52.452,68.928Q52.38,68.64,52.236,68.28Q52.308,68.208,52.308,67.848Q52.236,67.92,52.236,67.632Q52.38,67.488,52.38,67.272L52.236,67.056Q52.236,67.056,52.38,66.768Q52.452,65.904,52.596,64.644Q52.74,63.384,52.74,62.88L52.74,62.304Q52.74,61.944,52.776,61.62Q52.812,61.296,52.884,61.008L53.46,60.144Q53.532,59.784,53.676,59.352Q53.82,58.92,53.964,58.344Q54.324,57.552,55.404,56.472Q55.404,56.328,55.44,56.148Q55.476,55.968,55.548,55.752Q55.692,55.536,55.944,55.068Q56.196,54.6,56.628,53.52Q56.772,53.448,57.06,52.296Q57.132,52.368,57.348,52.368Q57.708,52.368,57.924,51.72L58.212,51.576Q58.644,50.784,59.076,49.632Q59.22,49.632,59.436,48.84Q59.94,48.48,60.804,47.328L60.948,46.824Q61.308,46.536,61.812,46.14Q62.316,45.744,62.892,45.24L63.108,44.808Q63.108,44.736,63.396,44.52Q63.684,44.304,63.612,44.088Q63.972,43.872,64.26,43.44L64.548,43.44L66.924,40.92Q67.068,40.632,67.464,40.056Q67.86,39.48,68.364,39.12Q68.724,38.976,69.372,38.472Q69.516,38.328,69.516,38.328L69.588,38.328Q69.588,38.4,69.66,38.4Q69.732,38.4,70.02,38.004Q70.308,37.608,70.668,37.464L71.1,36.96Q71.604,36.816,72.036,36.528L72.9,35.664L74.196,34.944Q74.7,34.656,75.924,33.576Q75.996,33.504,76.212,33.504Q76.428,33.216,76.86,33Q77.292,32.784,77.724,32.424Q79.164,31.848,80.604,30.552Q81.108,30.48,82.044,29.976L83.196,28.968L83.916,28.752L84.132,28.464Q84.492,28.32,85.14,28.068Q85.788,27.816,86.58,27.528Q86.94,27.312,86.796,27.312Q86.94,27.312,86.94,27.384L87.012,27.384Q87.156,27.384,87.3,27.024Q88.02,26.952,89.172,26.304Q89.388,26.304,89.856,26.16Q90.324,26.016,90.396,26.016Q90.54,26.016,90.54,26.088L90.612,26.088Q90.684,26.088,91.332,25.656Q91.98,25.224,92.124,25.224L93.564,25.368Q93.708,25.368,93.924,25.188Q94.14,25.008,95.004,24.72L99.612,24.216L99.828,24.36L100.548,24.36L101.412,24.216Q101.484,24.216,101.628,24.36Q101.772,24.504,101.916,24.504Q102.06,24.504,102.06,24.288Q102.492,24.36,103.32,24.54Q104.148,24.72,103.716,24.72Q103.86,24.72,103.86,24.648L103.932,24.648Q103.86,24.648,104.436,24.936Q104.724,25.08,105.228,25.08Q105.372,25.08,105.516,24.936L105.948,23.784L106.164,23.496Q106.38,23.208,106.488,22.812Q106.596,22.416,106.668,22.056L107.244,21.336Q107.244,21.192,107.244,20.904Q107.244,20.616,107.316,20.328L107.964,18.888Q107.892,18.744,107.892,18.312Q108.036,18.168,108.036,17.736Q108.252,17.52,108.972,15.072L109.548,14.208Q109.548,14.064,109.548,13.848Q109.548,13.632,109.62,13.344Q109.908,12.48,109.908,12.552L109.908,12.192Q109.836,11.976,109.836,11.76Q109.548,11.688,109.296,11.652Q109.044,11.616,108.9,11.616Q108.828,11.616,108.36,11.832Q107.892,12.048,107.82,12.048Q107.676,12.048,107.604,11.976L107.388,11.976Q107.244,11.976,107.028,12.084Q106.812,12.192,106.668,12.192Q106.596,12.192,106.344,12.048Q106.092,11.904,105.876,11.904Q105.588,11.832,105.084,11.796Q104.58,11.76,104.004,11.76Q103.932,11.76,103.86,11.904Q103.788,12.048,103.644,12.048L102.708,11.832Q102.564,11.832,102.42,11.94Q102.276,12.048,102.204,12.048Q102.06,12.048,101.988,11.976L101.772,11.976Q101.7,11.976,101.556,12.084Q101.412,12.192,101.34,12.192Q101.412,12.192,101.34,12.192Q101.268,12.192,101.16,12.156Q101.052,12.12,100.836,12.12Q100.764,12.048,100.764,11.94Q100.764,11.832,100.692,11.76Q100.548,11.904,100.44,11.976Q100.332,12.048,100.332,12.048L99.108,12.048Q98.532,12.048,98.244,12.084Q97.956,12.12,97.884,12.12L96.444,11.76Q96.372,11.76,96.336,11.868Q96.3,11.976,96.156,11.976L94.5,11.616Q94.428,11.616,94.356,11.688L94.212,11.688Q94.068,11.688,93.132,11.508Q92.196,11.328,92.052,11.328Q91.98,11.328,91.872,11.4Q91.764,11.472,91.62,11.472Q91.548,11.472,91.404,11.256Q91.26,11.04,90.972,11.04Q90.612,11.04,90.612,11.184L90.324,10.752Q90.18,10.752,89.964,10.752Q89.748,10.752,89.46,10.68Q89.388,10.536,89.172,10.464Q88.956,10.392,88.164,10.392Q87.948,10.392,88.02,10.464Q87.948,10.392,87.876,10.32Q87.804,10.248,87.66,10.104Q85.644,9.456,85.86,9.456L85.716,9.456Q85.716,9.528,85.572,9.528Q85.5,9.528,83.988,8.232L83.988,8.016Q83.988,7.944,84.06,7.62Q84.132,7.296,84.132,7.08Q84.708,6.576,84.636,6.36Q84.708,6.36,84.888,6.432Q85.068,6.504,85.212,6.504Q85.284,6.504,85.464,6.396Q85.644,6.288,85.788,6.288L91.26,7.8Q91.476,7.8,91.548,7.728Q91.908,8.16,92.196,8.16Q92.268,8.16,92.268,8.088Q92.268,8.016,92.412,8.016Q92.484,8.016,92.916,8.196Q93.348,8.376,93.42,8.448L96.372,8.952Q96.372,9.168,96.444,9.24L96.012,9.456L96.012,9.096Q95.58,8.952,95.508,8.952Q95.652,8.952,94.86,9.168Q94.788,9.096,94.428,9.096Q94.284,9.24,94.284,9.312Q94.284,9.384,94.608,9.636Q94.932,9.888,95.148,9.816L96.156,9.672Q96.228,9.672,96.408,9.78Q96.588,9.888,96.732,9.888L96.804,9.888Q96.804,9.816,96.876,9.816Q97.236,9.816,97.956,10.464L98.316,10.896Q98.748,10.896,99.036,10.968Q99.18,10.68,99.288,10.392Q99.396,10.104,99.756,10.104Q99.9,10.104,100.44,10.32Q100.98,10.536,101.052,10.536L101.412,10.536Q101.628,10.464,101.844,10.464Q102.348,10.464,102.42,10.536Q102.996,10.896,103.14,10.896Q103.212,10.896,103.428,10.824Q103.644,10.752,103.788,10.752Q104.22,10.752,104.292,10.968L104.508,10.968Q104.58,10.68,104.94,10.68Q105.084,10.68,105.264,10.788Q105.444,10.896,105.588,10.896L110.34,10.392Q110.844,9.24,110.628,8.016Q110.916,7.368,110.916,7.008Q110.916,7.152,110.7,6.648Q110.628,6.504,110.592,6.324Q110.556,6.144,110.556,5.856Q110.556,5.568,110.772,5.28L111.132,5.28Q111.492,6.144,111.708,6.288L111.564,6.576L111.708,8.088Q111.78,8.592,111.816,8.988Q111.852,9.384,111.852,9.744L111.708,10.104Q113.364,9.888,113.58,9.888Q114.876,9.888,115.596,9.24Q115.668,9.528,115.884,9.528Q115.668,9.528,118.548,8.664Q118.764,8.592,119.34,8.592Q119.124,8.664,118.476,9.312Q117.9,9.384,117.756,9.672Q117.684,9.6,117.54,9.6Q117.468,9.6,116.892,9.852Q116.316,10.104,116.172,10.104Q116.1,10.104,116.028,10.032L115.884,10.032Q115.812,10.032,115.488,10.14Q115.164,10.248,115.092,10.392Q114.804,10.392,113.796,10.824Q113.652,10.824,113.652,10.752L113.508,10.752Q113.436,10.752,113.112,10.932Q112.788,11.112,112.716,11.112L112.572,11.112Q112.572,11.04,112.428,11.04Q112.212,11.04,111.708,11.328Q111.636,11.4,111.636,11.472Q111.924,11.544,111.852,11.76L111.852,12.336Q111.852,12.408,111.708,12.588Q111.564,12.768,111.564,12.912Q111.564,13.056,111.528,13.308Q111.492,13.56,111.42,13.92Q111.636,14.208,111.636,14.928Q111.492,15.144,111.276,15.432Q111.06,15.72,110.916,16.08Q111.06,16.584,110.916,18.024Q110.34,19.896,110.016,20.724Q109.692,21.552,109.692,21.408Q109.332,21.984,109.62,22.056Q109.62,22.128,109.404,22.452Q109.188,22.776,109.116,23.136Q109.332,23.136,109.548,23.352Q109.332,24.72,109.26,24.648Q109.116,25.152,108.72,25.512Q108.324,25.872,108.324,26.232Q108.684,26.304,109.404,26.88L109.908,27.6Q110.556,29.112,110.556,29.184Q110.556,29.256,110.484,29.472L110.124,29.616Q109.98,29.616,108.108,26.88L108.036,26.952Q107.964,27.24,107.784,27.744Q107.604,28.248,107.46,28.896Q107.172,30.48,106.596,31.056Q106.092,31.56,105.948,33.432Q105.804,33.72,105.66,34.044Q105.516,34.368,105.372,34.728Q105.228,34.872,104.94,35.736Q103.788,37.104,103.86,37.392Q103.212,37.824,103.212,38.616Q103.14,38.616,103.068,38.688L102.564,39.624Q102.564,39.624,102.564,39.768Q102.564,39.912,102.636,40.2L102.636,40.272Q102.636,40.344,102.636,40.524Q102.636,40.704,102.564,40.992Q102.276,41.136,102.204,41.316Q102.132,41.496,101.988,41.856Q101.7,42.36,100.98,43.008Q100.98,43.44,101.268,43.944Q101.196,43.944,100.836,44.52Q99.756,44.592,99.756,45.528Q99.756,45.816,99.828,45.96L99.684,45.96Q99.396,45.96,99.144,46.392Q98.892,46.824,98.316,47.4Q98.244,47.76,97.596,48.768Q97.452,48.768,97.092,49.056Q97.092,49.2,96.804,49.812Q96.516,50.424,96.66,50.784Q96.588,50.856,96.48,50.964Q96.372,51.072,96.084,51.216Q96.084,51.288,95.94,51.72L95.364,52.368Q95.004,52.512,94.572,52.728Q94.14,52.944,93.78,53.304L94.284,53.52Q94.14,53.808,93.852,54.348Q93.564,54.888,92.628,55.608Q92.556,55.896,92.376,56.148Q92.196,56.4,91.98,56.832Q91.62,57.048,91.044,57.912Q90.324,58.128,89.82,58.776Q89.1,59.568,88.956,59.82Q88.812,60.072,88.812,60.072Q88.812,60.144,88.704,60.252Q88.596,60.36,87.228,61.728Q87.084,61.728,86.94,61.8Q86.796,61.872,86.436,62.304Q86.148,62.808,86.004,62.808Q85.86,62.808,85.716,62.952Q85.5,63.24,85.104,63.6Q84.708,63.96,84.132,64.176Q84.06,64.32,83.844,64.5Q83.628,64.68,83.412,64.824Q82.764,65.328,81.468,66.768Q81.108,66.768,81.036,66.84L77.868,69Q76.5,70.224,76.428,70.224Q76.356,70.224,76.32,70.152Q76.284,70.08,76.212,70.08Q75.924,70.08,75.78,70.26Q75.636,70.44,75.492,70.584Q74.34,71.16,74.268,71.376Q74.268,71.232,74.052,71.232Q74.052,71.232,73.26,71.736Q72.54,71.88,71.388,72.384Q70.668,72.816,70.74,72.816Q70.668,72.816,70.668,72.744L70.524,72.744Q70.524,72.744,70.128,72.96Q69.732,73.176,68.94,73.32L68.004,73.536Q67.932,73.464,67.428,73.464Q67.428,73.464,67.428,73.5Q67.428,73.536,67.356,73.608L67.212,73.608Q67.14,73.608,66.672,73.644Q66.204,73.68,65.196,73.68L63.108,73.68Q63.036,73.68,62.82,73.536Q62.604,73.392,62.532,73.392Q62.46,73.392,62.172,73.536Q60.876,72.312,60.228,72.024Q59.868,71.664,59.796,71.448L60.804,71.664Q62.748,72.384,62.604,72.384Q62.676,72.384,62.748,72.312L62.892,72.312Q62.964,72.312,63.072,72.42Q63.18,72.528,63.252,72.528L64.188,72.528Q64.188,72.528,64.296,72.564Q64.404,72.6,64.62,72.672Q64.62,72.744,65.268,72.744Q65.916,72.744,65.916,72.672Q66.492,72.384,66.42,72.384Q66.564,72.384,66.564,72.456L66.708,72.456Q66.996,72.456,67.32,72.42Q67.644,72.384,68.004,72.312Q68.076,72.24,68.328,72.096Q68.58,71.952,68.652,71.952Q68.796,71.952,68.796,72.024Q68.796,72.096,68.94,72.096Q69.66,72.096,69.66,71.52L69.948,71.592Q69.876,71.592,70.344,71.412Q70.812,71.232,71.604,70.8Q71.748,70.656,72,70.44Q72.252,70.224,73.476,69.72L73.908,69.072L74.124,69.072Q74.916,69.072,75.276,68.28L76.14,67.848Q76.14,67.704,76.32,67.488Q76.5,67.272,76.932,67.272Q77.076,66.912,77.796,66.696Q77.868,66.624,77.94,66.408Q78.012,66.192,78.3,65.976Q78.372,65.904,78.372,65.544L78.66,65.616Q78.804,65.616,79.092,65.184Q79.092,65.04,79.092,64.896Q79.092,64.752,79.164,64.536Q79.668,64.032,80.028,64.104L80.316,64.176L80.604,63.6Q80.82,63.096,80.532,62.808L81.324,62.16Q81.468,62.16,81.612,62.124Q81.756,62.088,81.972,62.016Q81.972,62.016,81.972,61.98Q81.972,61.944,82.044,61.872Q82.836,61.44,82.908,61.512Q83.052,61.224,82.98,60.864Q83.34,60.216,83.556,60.216L83.628,60.216Q83.556,60.288,83.7,60.288Q83.556,60.288,84.204,59.856Q84.348,59.712,84.204,59.568Q84.924,59.208,85.104,58.884Q85.284,58.56,85.86,57.768Q86.004,57.768,86.076,57.696L86.652,56.544Q87.012,56.328,87.444,55.752Q87.876,55.536,87.984,55.032Q88.092,54.528,88.164,54.096Q88.308,54.024,88.488,53.952Q88.668,53.88,88.956,53.736Q89.1,53.592,89.388,52.8L89.46,52.8Q89.748,52.8,90.468,52.152L90.468,51.864Q90.468,51.936,90.684,51.936Q90.468,51.936,91.836,50.208L92.196,49.776L92.34,49.776Q92.772,49.776,92.988,49.344Q93.276,48.984,93.348,48.552Q93.492,48.552,93.564,48.588Q93.636,48.624,93.708,48.624Q94.284,48.624,94.428,47.904Q94.428,47.76,94.464,47.472Q94.5,47.184,94.572,46.824Q94.572,46.68,95.724,45.312Q95.724,45.096,96.516,43.944L97.092,42.576Q97.452,42.432,97.74,42.144Q97.884,42,97.74,41.784Q97.884,41.424,98.1,41.208Q98.316,40.992,98.748,40.416L98.748,40.056L99.108,39.192L99.612,38.904Q99.684,38.4,99.612,37.968Q100.188,37.896,100.98,35.448L101.124,35.448Q101.628,35.448,101.772,34.512Q101.7,34.44,101.7,34.008Q101.988,33.72,102.564,32.784Q102.564,32.64,102.672,32.352Q102.78,32.064,103.14,31.488Q103.284,31.344,103.428,31.164Q103.572,30.984,103.716,30.696Q103.788,30.336,103.86,29.868Q103.932,29.4,104.076,28.824Q104.22,28.68,104.436,28.428Q104.652,28.176,104.868,27.816L104.868,26.88Q104.94,26.808,105.156,26.088Q102.78,25.296,102.06,25.296L101.844,25.296Q101.772,25.368,101.556,25.368Q101.484,25.368,100.908,25.26Q100.332,25.152,100.188,25.152Q100.116,25.152,100.08,25.224Q100.044,25.296,99.972,25.296Q99.9,25.296,99.756,25.296Q99.612,25.296,99.468,25.224L98.964,25.224Q98.892,25.224,98.64,25.332Q98.388,25.44,98.316,25.44Q96.66,25.44,96.372,25.476Q96.084,25.512,95.58,25.584Q95.436,25.584,94.788,26.232Q92.196,26.304,89.964,27.672Q89.532,27.888,88.884,28.104Q88.236,28.32,88.236,28.464Q88.236,28.464,88.2,28.464Q88.164,28.464,88.164,28.392L88.092,28.392Q88.02,28.392,87.84,28.536Q87.66,28.68,87.012,29.04L86.436,29.04Q86.292,29.4,85.788,29.436Q85.284,29.472,83.628,30.696Q83.412,30.696,83.196,30.768Q83.052,31.056,82.224,31.416Q81.396,31.776,80.964,32.208L80.604,32.208L80.388,32.64L79.524,33.144L78.732,33.504Q78.588,33.72,78.372,33.828Q78.156,33.936,77.94,34.08L76.932,35.088L76.284,36.024L75.708,36.384L75.492,36.672Q74.268,36.888,73.044,38.76Q72.756,38.904,72.288,39.12Q71.82,39.336,71.244,39.624L70.092,41.208Q70.092,41.424,70.02,41.496Q69.732,41.784,69.588,41.784Q69.444,41.784,69.408,41.712Q69.372,41.64,69.228,41.64Q68.868,41.64,68.868,41.928L68.868,42.36L67.86,43.368Q67.716,43.584,67.464,43.836Q67.212,44.088,66.852,44.448Q66.708,44.592,66.852,44.736Q66.636,44.664,66.636,44.592Q66.492,44.736,65.988,45.096Q65.484,45.456,64.908,46.032Q64.836,46.248,64.62,46.536Q64.404,46.824,64.116,47.184Q64.116,47.256,64.152,47.292Q64.188,47.328,64.188,47.472Q64.188,47.688,63.972,48.12Q63.612,48.12,62.892,48.768Q62.892,48.984,63.036,49.272Q62.604,49.56,62.172,49.884Q61.74,50.208,61.812,50.856Q61.668,51,61.344,51.18Q61.02,51.36,60.66,51.576Q60.732,51.648,60.732,52.224Q59.724,53.232,59.796,53.592Q59.508,53.52,59.4,53.952Q59.292,54.384,58.788,55.032L58.788,55.464Q58.356,55.752,57.852,56.256Q57.852,56.4,57.816,56.616Q57.78,56.832,57.708,57.192Q57.06,57.48,57.132,58.02Q57.204,58.56,56.34,59.784Q56.052,60,55.692,60.432Q55.548,60.576,55.476,61.44Q55.476,61.512,55.188,62.016Q55.188,62.304,54.756,63.168Q54.684,63.456,54.756,64.896Q54.756,65.688,54.108,66.12L53.892,67.992Q53.892,68.352,54.252,68.928Q54.108,69.36,54.108,69.864L54.324,70.224Q54.396,70.368,54.396,70.656Q54.396,70.944,54.468,71.304Q54.54,71.376,54.612,71.556Q54.684,71.736,55.044,72.384Q55.116,72.456,55.188,72.636Q55.26,72.816,55.404,72.96Q56.268,74.688,56.772,74.688Q56.916,74.688,56.988,74.616Q56.988,75.048,57.564,75.228Q58.14,75.408,58.212,75.768Q58.068,75.912,57.924,75.912ZM110.628,29.184Q110.628,29.184,110.556,29.184Q110.628,29.112,110.628,29.184ZM148.14,62.016Q148.14,61.944,147.996,61.764Q147.852,61.584,147.852,61.512Q147.852,61.44,148.032,61.152Q148.212,60.864,148.284,60.72Q148.356,60.648,148.824,60.18Q149.292,59.712,149.364,59.712Q149.292,59.712,149.364,59.712Q149.364,59.784,149.58,60Q149.724,59.784,149.796,59.568Q149.868,59.352,149.94,59.064Q150.228,58.992,150.66,58.632Q150.876,58.344,151.38,57.696Q151.884,57.048,153.036,55.68Q153.468,55.608,153.972,54.312Q153.972,54.24,153.972,54.096Q153.972,53.952,154.044,53.736Q154.116,53.808,154.26,54.24Q154.692,54.096,154.764,53.808Q155.7,53.016,156.78,51Q157.572,50.208,157.86,50.136Q158.004,49.272,157.86,49.272Q158.076,49.2,158.22,48.768Q158.508,48.768,159.444,47.472L159.732,47.112Q160.236,46.896,161.028,45.888Q161.172,45.744,161.316,45.6Q161.46,45.456,161.748,45.312Q161.82,45.168,161.676,44.88Q162.108,44.88,161.964,45.024L162.036,45.024Q162.468,45.024,162.54,44.016Q162.468,44.016,162.54,43.944L162.54,44.016Q162.54,44.016,162.684,44.016Q162.612,44.016,163.116,43.512Q163.26,43.368,163.548,43.08Q163.836,42.792,163.908,42.432L163.908,42.144Q163.98,42,164.088,41.856Q164.196,41.712,164.268,41.568Q164.628,40.848,164.772,40.848Q164.7,40.776,164.628,40.632Q164.556,40.488,164.484,40.344Q163.62,41.352,163.62,41.568Q163.62,41.784,163.548,42Q163.404,42,163.224,41.892Q163.044,41.784,162.9,41.784Q161.964,41.784,162.468,42.432L162.108,42.576Q161.388,43.512,160.74,44.196Q160.092,44.88,159.516,45.456L157.932,46.752Q157.86,46.824,157.86,46.896Q157.86,46.968,157.284,47.328Q156.996,47.616,156.672,48.012Q156.348,48.408,155.988,48.912L154.332,50.712Q154.044,51,153.54,51.396Q153.036,51.792,152.388,52.368L151.74,53.088Q151.74,52.944,151.596,52.8Q151.668,52.44,152.064,51.936Q152.46,51.432,153.396,50.424L156.78,46.68L158.508,45.24Q159.228,44.304,161.028,42.288Q161.604,42,162.108,41.568L162.252,41.28Q163.548,40.272,164.412,39.12L165.06,38.76Q165.204,38.544,165.6,38.22Q165.996,37.896,166.86,37.32Q168.732,35.52,168.66,35.088Q169.524,34.656,169.452,33.576L169.596,34.08Q170.028,34.08,170.172,33.576Q170.316,33.072,170.388,32.64L171.972,29.76L172.26,28.68Q172.404,28.608,172.476,28.248Q172.548,27.888,173.268,26.808L173.268,26.592Q173.268,26.376,173.304,26.16Q173.34,25.944,173.412,25.728Q173.556,25.656,173.844,25.224Q173.988,25.08,173.988,24.648L173.844,24.144L173.844,23.784Q173.844,23.784,174.276,23.28Q174.42,23.136,174.276,22.992L174.924,21.84L174.924,21.552Q174.924,21.408,174.924,21.084Q174.924,20.76,174.852,20.328L174.996,20.112L174.996,19.104Q175.212,18.312,175.212,18.6Q175.212,17.88,175.14,17.664L174.06,15.504Q173.772,15.072,173.196,15.072L172.908,15.144Q172.908,15,172.98,14.928Q172.764,14.568,172.476,14.568L172.332,14.568Q172.332,14.64,172.26,14.64L172.188,14.64Q172.26,14.64,172.26,14.64Q172.26,14.568,171.54,14.352Q171.108,14.208,170.748,14.208Q170.676,14.208,170.748,14.28Q170.748,14.424,170.676,14.424Q170.532,14.424,170.496,14.352Q170.46,14.28,170.388,14.28Q170.244,14.28,170.136,14.424Q170.028,14.568,169.956,14.568Q169.812,14.568,169.452,14.496Q169.092,14.424,168.948,14.424L167.364,14.64L165.852,14.784Q165.42,15.072,165.24,15.072Q165.06,15.072,164.268,15.36Q163.62,15.648,163.332,15.648Q163.188,15.648,161.892,16.08L161.676,16.368Q157.572,17.808,154.404,19.608Q154.116,19.68,153.792,19.86Q153.468,20.04,152.964,20.184L147.996,22.56Q146.34,23.568,146.628,23.568L146.484,23.568Q146.484,23.496,146.34,23.496Q146.484,23.496,145.98,23.712Q145.476,23.928,144.828,24.648Q144.108,24.648,144.036,24.936Q143.892,24.936,144.036,24.792Q144.036,24.72,143.964,24.72Q143.892,24.72,143.352,25.26Q142.812,25.8,142.74,25.8Q142.668,25.8,142.596,25.728L142.524,25.728Q142.524,25.728,141.588,26.088Q141.372,26.16,141.372,26.448L139.86,27.312Q139.932,27.312,138.924,27.96L137.124,28.824L134.676,30.12Q134.604,30.12,134.604,30.336Q134.604,30.264,134.46,30.264Q133.956,30.264,133.38,30.768Q133.236,30.768,133.092,30.84Q132.588,31.128,131.724,31.704Q131.652,31.704,130.716,32.424Q130.572,32.28,130.356,32.28Q130.284,32.28,130.104,32.424Q129.924,32.568,129.852,32.568Q129.708,32.568,129.744,32.496Q129.78,32.424,129.708,32.424Q129.204,32.424,128.772,33.288Q128.196,33.288,127.656,33.684Q127.116,34.08,126.972,34.08Q126.9,34.08,126.324,34.512Q126.036,34.584,125.604,34.728Q125.172,34.872,124.596,35.088Q124.452,35.16,124.02,35.52Q123.588,35.88,123.444,35.88L123.372,35.88Q123.444,35.808,123.3,35.808Q123.228,35.808,123.12,35.952Q123.012,36.096,122.94,36.096Q122.796,36.096,121.572,36.456L121.356,36.312Q120.636,36.816,120.564,36.816Q120.492,36.816,120.42,36.744Q120.348,36.672,120.204,36.672Q120.06,36.672,119.736,36.888Q119.412,37.104,119.268,37.104L119.196,37.104Q119.196,37.032,119.124,37.032Q119.052,37.032,119.088,37.14Q119.124,37.248,118.98,37.248Q118.908,37.248,118.8,37.176Q118.692,37.104,118.62,37.104Q118.476,37.104,118.512,37.212Q118.548,37.32,118.476,37.32Q118.332,37.32,118.404,37.248L118.332,37.248Q117.9,37.248,118.044,37.32L117.9,37.464Q117.612,37.464,117.144,37.392Q116.676,37.32,116.604,37.32Q116.532,37.32,116.46,37.428Q116.388,37.536,116.316,37.536Q116.172,37.536,115.452,37.32Q114.732,37.104,114.66,37.104Q114.732,37.104,114.3,37.32L113.076,36.672Q112.716,36.456,112.716,36.384L112.716,36.456L112.644,36.456Q112.428,36.456,111.276,34.872L111.276,34.368Q111.348,34.296,111.348,34.152Q111.348,33.288,111.78,31.776Q111.636,31.56,112.716,29.76Q113.076,29.472,113.436,29.076Q113.796,28.68,114.156,28.104Q114.948,27.384,115.452,26.736Q115.668,26.52,116.244,26.304L116.388,26.016Q116.748,25.656,117.36,25.188Q117.972,24.72,118.764,24.144Q118.908,24.072,119.196,23.784Q119.484,23.496,119.988,23.352Q120.492,22.632,120.78,22.632L120.852,22.632Q120.852,22.704,120.924,22.704Q120.924,22.704,121.032,22.56Q121.14,22.416,121.5,22.416L121.716,22.272Q121.86,22.272,121.86,22.2L121.932,22.2L122.652,21.696L122.652,22.2L121.356,23.136L119.988,23.856L118.188,25.296Q117.828,25.8,116.82,26.376Q116.676,26.88,115.524,27.744Q115.524,27.816,115.524,27.96Q115.524,28.104,115.452,28.248Q115.452,28.248,115.416,28.248Q115.38,28.248,115.308,28.176Q115.02,28.464,114.876,29.04Q114.732,28.896,114.66,28.896Q114.588,29.04,114.48,29.328Q114.372,29.616,114.084,29.976L113.58,30.192L113.58,30.336Q113.58,30.984,112.788,31.416Q112.788,31.488,112.824,31.488Q112.86,31.488,112.86,31.56Q112.86,31.848,112.572,32.316Q112.284,32.784,112.284,32.928Q112.284,33,112.392,33.216Q112.5,33.432,112.5,33.576Q112.5,33.648,112.5,33.792Q112.5,33.936,112.428,34.152Q112.5,34.368,112.716,34.548Q112.932,34.728,113.22,34.872Q113.652,35.088,113.724,35.16Q113.724,35.16,113.796,35.16Q113.868,35.16,113.868,35.304Q113.868,35.448,113.94,35.448Q114.084,35.448,114.156,35.268Q114.228,35.088,114.372,35.088Q114.444,35.088,114.444,35.16L114.588,35.16Q114.732,35.16,114.732,34.944Q114.804,35.016,114.876,35.088Q114.948,35.16,115.092,35.304L115.236,35.304Q115.452,35.304,115.668,35.232Q116.028,35.088,116.316,35.232L117.468,35.448Q117.612,35.448,117.972,35.232Q118.332,35.016,118.764,35.016L119.052,35.016Q119.124,35.088,119.34,35.088L119.484,34.944Q119.7,34.872,120.06,34.692Q120.42,34.512,120.492,34.512Q120.564,34.512,120.708,34.584Q120.852,34.656,120.924,34.656Q120.708,34.656,121.32,34.404Q121.932,34.152,123.012,33.936Q122.868,33.792,123.084,33.792L123.3,33.792Q123.372,33.864,123.588,33.864Q123.66,33.864,123.66,33.792Q123.66,33.72,123.732,33.72L123.876,33.72Q123.804,33.792,123.948,33.792Q124.02,33.792,124.164,33.612Q124.308,33.432,124.38,33.432Q124.452,33.432,124.452,33.504L124.596,33.504Q124.668,33.504,124.74,33.396Q124.812,33.288,124.884,33.288L125.028,33.288Q125.1,33.36,125.172,33.36Q125.532,33.216,126.108,32.892Q126.684,32.568,127.476,32.136Q127.62,32.208,127.908,32.136Q128.196,31.92,128.7,31.704Q129.204,31.488,130.5,30.984Q130.86,30.768,131.652,30.192Q132.444,29.616,132.588,29.616Q132.66,29.616,132.588,29.688Q132.516,29.76,132.66,29.76Q133.38,29.76,133.956,28.968Q134.1,28.896,134.46,28.608Q134.82,28.32,134.964,28.32Q135.036,28.32,135.072,28.392Q135.108,28.464,135.18,28.464Q135.252,28.464,135.612,28.176Q135.972,27.888,136.044,27.888L136.116,27.888Q136.116,27.96,136.188,27.96Q136.62,27.96,137.772,26.88Q138.276,26.376,138.204,26.376Q138.348,26.376,138.276,26.448L138.42,26.448Q138.78,26.448,139.068,26.232Q141.228,24.936,141.156,24.936L141.3,24.936Q141.3,25.008,141.372,25.008Q141.084,25.008,143.316,23.856Q143.604,23.856,144.324,23.28Q144.396,23.28,144.54,23.208Q144.684,23.136,145.332,22.776Q146.052,22.344,146.052,22.2L146.412,22.2Q146.268,22.2,146.412,22.344Q146.916,21.984,147.672,21.48Q148.428,20.976,149.364,20.4L149.436,20.4Q149.508,20.4,150.084,20.112L150.948,19.68Q151.164,19.536,151.308,19.104L151.524,19.32Q151.668,19.176,152.1,18.924Q152.532,18.672,153.54,18.24L153.9,17.88Q154.188,17.808,154.512,17.664Q154.836,17.52,155.196,17.376L156.492,16.368Q156.852,16.296,157.464,16.008Q158.076,15.72,159.3,15.072Q159.588,15.072,160.092,14.856Q161.316,14.136,161.244,14.136Q161.316,14.136,161.316,14.208L161.388,14.208Q161.604,14.208,162.9,13.704Q164.34,13.128,164.484,12.912Q164.628,13.056,164.844,13.056Q164.916,13.056,165.024,12.948Q165.132,12.84,165.204,12.84Q165.276,12.84,165.42,12.984Q165.564,12.984,165.636,12.696Q165.708,12.768,165.996,12.768Q166.14,12.768,166.608,12.516Q167.076,12.264,167.148,12.264L167.508,12.264Q167.652,12.336,167.796,12.336Q168.948,12.336,169.524,11.76Q169.596,11.832,169.956,11.832Q170.028,11.832,170.352,11.832Q170.676,11.832,171.324,11.904Q172.044,11.976,172.368,11.976Q172.692,11.976,172.764,11.976Q172.548,11.976,172.98,11.832Q172.908,11.904,172.908,12.048Q172.908,12.336,173.34,12.552Q173.772,11.904,174.06,11.904Q174.492,11.904,176.292,12.696Q176.292,12.696,176.4,12.876Q176.508,13.056,176.652,13.056L176.724,13.056Q176.724,12.984,176.796,12.984Q177.228,12.984,177.516,14.352Q177.804,14.496,178.02,14.496Q178.092,14.64,178.272,14.928Q178.452,15.216,178.74,15.576Q178.74,15.648,178.776,15.828Q178.812,16.008,178.884,16.224Q179.028,16.728,179.1,17.088Q179.172,17.448,179.244,17.808L179.244,18.6Q179.244,18.672,179.352,18.852Q179.46,19.032,179.46,19.104Q179.46,19.176,179.352,19.356Q179.244,19.536,179.244,19.608Q179.316,19.824,179.316,20.544L179.1,20.832Q179.028,21.264,178.884,21.84Q178.74,22.416,178.74,22.992Q178.308,23.136,178.236,23.424Q178.092,24.144,177.876,24.18Q177.66,24.216,177.732,25.224Q177.3,25.656,176.94,26.304Q176.868,26.952,176.292,28.032L176.364,28.32L175.788,28.752Q175.788,28.752,175.932,29.4Q175.932,29.472,176.148,29.472Q176.436,29.472,176.652,28.896Q176.364,28.896,177.588,28.536Q178.164,28.392,178.128,28.284Q178.092,28.176,178.596,27.96Q179.1,27.6,179.532,27.276Q179.964,26.952,180.324,26.736Q180.54,26.736,180.9,26.484Q181.26,26.232,181.908,25.872L182.052,25.728L182.916,25.152Q183.132,25.08,183.456,24.972Q183.78,24.864,184.212,24.648Q184.932,24.072,185.292,23.784Q185.652,23.496,185.652,23.496Q185.724,23.496,185.724,23.568L185.868,23.568Q185.652,23.568,187.092,22.776Q188.028,22.488,189.9,21.336Q189.828,21.552,189.972,21.552Q190.332,21.552,191.34,20.976Q191.916,20.616,192.204,20.76Q192.276,20.76,192.348,20.688Q192.42,20.616,192.708,20.688L193.5,20.04Q193.5,20.184,193.644,20.184L193.932,20.184Q194.292,20.184,194.616,19.968Q194.94,19.752,195.228,19.68L195.444,19.68Q195.516,19.752,195.66,19.752L197.892,19.752Q197.964,19.752,198.072,19.644Q198.18,19.536,198.252,19.536Q198.324,19.536,198.288,19.644Q198.252,19.752,198.396,19.752L199.188,19.536Q199.476,19.536,201.132,20.688L201.348,20.544L201.996,21.552Q202.428,21.696,202.5,21.696L202.5,22.2Q202.572,22.416,202.572,22.632Q202.572,22.488,202.068,23.208L202.068,23.712Q201.996,23.784,201.924,23.856Q201.852,23.928,201.78,24.072Q201.78,24.36,201.78,24.72Q201.78,25.08,201.708,25.584L200.916,27.6L199.044,30.552Q198.9,30.696,198.648,30.948Q198.396,31.2,198.54,31.632Q197.892,31.92,197.316,32.856L197.388,33.648L197.604,33.432Q197.748,33.288,198.072,33.108Q198.396,32.928,198.756,32.64Q198.828,32.496,199.188,32.136L201.276,30.84Q202.5,30.192,202.212,30.192L202.356,30.192Q202.356,30.264,202.428,30.264Q202.5,30.264,202.68,30.12Q202.86,29.976,202.932,29.976Q203.004,29.976,203.004,30.048L203.148,30.048Q203.22,30.048,203.328,29.976Q203.436,29.904,203.508,29.904Q203.58,29.904,204.516,29.544Q205.452,29.184,205.524,29.184Q205.596,29.184,205.812,29.292Q206.028,29.4,206.172,29.4Q206.244,29.4,206.604,29.328Q206.964,29.256,207.108,29.256Q207.756,29.256,208.692,30.12Q208.836,30.336,209.16,30.66Q209.484,30.984,209.844,31.344Q209.916,31.632,210.06,31.848Q210.204,32.064,210.348,32.28L210.996,34.944Q210.996,35.016,211.176,35.412Q211.356,35.808,211.356,35.88Q211.356,35.88,211.068,36.384L210.924,36.24L210.78,36.312L210.636,36.168Q210.276,36.312,210.276,36.672Q210.276,36.744,210.384,36.96Q210.492,37.176,210.492,37.32L210.492,38.832Q210.636,39.048,210.78,39.372Q210.924,39.696,211.068,40.2Q211.14,40.488,211.212,40.884Q211.284,41.28,211.428,41.784Q211.644,42,211.968,42.36Q212.292,42.72,212.652,43.296Q213.012,43.872,213.444,44.088L213.66,44.088Q213.804,44.088,213.912,44.016Q214.02,43.944,214.164,43.944L214.38,44.088L215.244,44.088Q215.676,44.088,215.676,44.592Q215.676,45.024,215.172,45.312Q214.668,45.6,214.452,45.6Q214.38,45.6,213.588,45.024Q212.868,44.376,212.652,44.376Q212.436,44.376,212.58,44.52Q212.508,44.448,212.508,44.16Q212.292,44.088,211.14,42.288L210.204,41.28L209.772,39.984L209.196,39.48Q209.34,39.336,209.196,39.192Q209.052,39.048,208.836,38.328L208.62,37.68L207.684,36.456L206.892,34.872Q206.892,34.872,206.712,34.332Q206.532,33.792,206.172,33.288Q205.812,32.784,205.38,32.784Q205.236,32.784,205.236,32.856L205.164,32.856Q205.38,32.856,204.444,32.352Q204.372,32.208,203.796,32.136L203.508,31.776L203.292,32.208L202.788,31.992Q202.644,31.992,202.536,32.1Q202.428,32.208,202.356,32.208Q202.284,32.208,202.284,32.136L202.212,32.136Q202.14,32.136,201.996,32.352Q201.852,32.568,201.708,32.568Q201.492,32.568,201.492,32.424L200.628,32.928L200.34,32.856L198.468,34.008L198.324,34.008Q198.324,33.936,198.252,33.936Q198.396,33.936,196.74,35.376Q196.02,35.736,195.732,36.096Q195.3,36.456,194.652,36.996Q194.004,37.536,193.068,38.256Q192.348,38.832,192.096,39.192Q191.844,39.552,191.484,40.056Q191.412,40.056,191.196,40.416Q190.98,40.776,190.764,41.064Q190.836,40.992,190.62,40.992Q190.836,40.992,190.404,41.136L189.612,42.216Q189.468,42.288,189.18,42.396Q188.892,42.504,188.388,42.792Q188.172,42.576,187.74,42.576L187.596,42.072Q187.596,41.208,188.1,41.208Q188.172,41.208,188.136,41.28Q188.1,41.352,188.244,41.352L189.252,40.416L189.972,39.552Q190.116,39.48,190.296,39.336Q190.476,39.192,190.764,38.976Q190.908,38.976,190.98,38.904Q191.268,38.616,191.592,38.184Q191.916,37.752,192.348,37.176Q192.348,36.96,192.42,36.816Q193.14,35.952,193.284,35.376L194.004,34.512L194.436,33.36L195.3,31.992L195.876,30.84Q196.308,29.832,196.776,28.536Q197.244,27.24,197.748,25.584Q197.748,25.368,197.82,25.296Q197.82,24.792,197.748,24.936Q197.748,24.648,197.712,24.468Q197.676,24.288,197.604,24.144L197.604,23.712Q197.532,23.496,197.388,23.208Q197.244,22.92,197.1,22.56Q197.1,22.56,196.668,22.416Q196.668,22.416,196.524,22.236Q196.38,22.056,196.308,22.056L196.164,22.056Q196.164,22.128,196.092,22.128Q196.092,22.128,195.588,21.84Q195.516,21.84,195.084,22.056Q194.652,22.272,194.58,22.272Q194.436,22.272,194.508,22.2L194.364,22.2Q194.292,22.2,194.076,22.344Q193.86,22.488,193.716,22.488L193.572,22.2L192.564,22.416Q192.06,22.56,191.844,22.668Q191.628,22.776,191.556,22.776Q191.484,22.776,191.484,22.704L191.412,22.704Q191.268,22.704,191.052,22.92L189.828,23.352Q189.252,23.064,188.964,23.064Q188.82,23.064,188.532,23.352Q188.46,23.568,188.172,23.748Q187.884,23.928,187.74,24.144Q187.668,24.144,187.524,24.072Q187.38,24,187.236,24Q187.092,24.144,187.164,24.36L187.02,24.36Q186.516,24.36,185.904,24.792Q185.292,25.224,183.852,25.8Q183.348,26.088,182.448,26.736Q181.548,27.384,181.476,27.384Q181.332,27.384,181.332,27.312L181.188,27.312Q181.116,27.312,179.892,28.32Q179.748,28.392,179.532,28.464Q179.316,28.536,178.956,28.608Q178.74,29.4,176.652,29.976Q176.508,30.408,175.5,30.912Q175.5,30.984,175.356,31.272Q174.42,31.56,173.916,32.28Q173.916,32.568,173.556,33Q172.836,33.72,172.692,34.512Q171.972,35.664,172.044,35.592Q172.116,35.664,172.044,35.664L172.044,35.592Q171.972,35.592,171.828,35.52L171.468,35.952Q171.468,36.096,171.396,36.492Q171.324,36.888,171.324,37.032L171.036,36.816Q170.964,36.816,170.892,36.744L170.46,37.464Q170.388,37.464,170.244,37.68Q169.596,37.968,169.668,38.688L168.804,39.48Q168.732,39.552,168.66,39.804Q168.588,40.056,168.444,40.488Q168.3,40.56,168.12,40.704Q167.94,40.848,167.652,40.992L167.364,41.784Q167.076,41.784,166.572,42.504Q166.428,42.648,166.248,42.864Q166.068,43.08,165.924,43.512Q164.412,44.16,164.196,45.672Q163.692,45.744,163.332,46.32Q163.332,46.536,163.116,47.112Q162.828,47.256,162.504,47.508Q162.18,47.76,161.748,48.12L161.1,48.984Q160.956,49.128,160.776,49.308Q160.596,49.488,160.452,49.56Q160.236,49.848,160.38,49.992Q160.236,50.064,160.02,50.136Q159.804,50.208,159.516,50.352L159.3,51.072Q159.3,51.288,158.868,51.432Q158.436,52.296,158.148,52.296Q158.004,52.296,157.932,52.224Q157.572,52.944,156.852,53.88Q156.78,53.952,156.78,54.096Q156.42,54.096,156.204,54.348Q155.988,54.6,155.844,54.6L155.772,54.6Q155.772,54.528,155.7,54.528Q155.7,54.528,155.556,54.744Q155.412,54.96,155.124,55.464L154.764,56.04Q154.332,56.184,154.26,56.472Q153.828,56.616,153.576,57.048Q153.324,57.48,153.252,57.48L153.108,57.48Q153.036,57.408,152.964,57.408Q152.676,57.408,152.46,57.984Q151.956,58.2,151.812,58.56L150.516,59.64Q149.724,60,149.436,60.432L149.436,60.504Q149.436,60.72,149.256,61.08Q149.076,61.44,148.14,62.016ZM122.364,23.064L122.076,22.776L122.148,22.632L122.436,22.92L122.364,23.064ZM113.652,35.232L113.724,35.232Q113.724,35.232,113.652,35.232ZM146.7,62.952L146.916,62.232Q147.06,62.16,147.276,62.16Q147.636,62.16,147.636,62.808Q146.844,63.096,146.7,62.952Z" fill="#FFFFFF" fill-opacity="1"/></g></svg>